STARTFONT 2.1
COMMENT
COMMENT Converted from OpenType font "..\ttf\ITC Avant Garde Gothic Book Condensed.otf" by "otf2bdf.exe 3.0".
COMMENT
FONT -FreeType-AvantGarde CondBook-Medium-R-Normal--42-300-100-100-P-169-ISO10646-1
SIZE 30 100 100
FONTBOUNDINGBOX 49 49 -7 -8
STARTPROPERTIES 19
FOUNDRY "FreeType"
FAMILY_NAME "AvantGarde CondBook"
WEIGHT_NAME "Medium"
SLANT "R"
SETWIDTH_NAME "Normal"
ADD_STYLE_NAME ""
PIXEL_SIZE 42
POINT_SIZE 300
RESOLUTION_X 100
RESOLUTION_Y 100
SPACING "P"
AVERAGE_WIDTH 169
CHARSET_REGISTRY "ISO10646"
CHARSET_ENCODING "1"
FONT_ASCENT 30
FONT_DESCENT 8
COPYRIGHT "Copyright (c) 1989, 1990 Adobe Systems Incorporated.  All Rights Reserved.Avant Garde Gothic is a registered trademark of International Typeface Corporation."
_OTF_FONTFILE "..\ttf\ITC Avant Garde Gothic Book Condensed.otf"
_OTF_PSNAME "AvantGarde-CondBook"
ENDPROPERTIES
CHARS 235
STARTCHAR 0020
ENCODING 32
SWIDTH 288 0
DWIDTH 12 0
BBX 0 0 0 0
BITMAP
ENDCHAR
STARTCHAR 0021
ENCODING 33
SWIDTH 216 0
DWIDTH 9 0
BBX 3 30 3 0
BITMAP
E0
E0
E0
E0
E0
E0
E0
E0
E0
E0
E0
E0
E0
E0
E0
E0
E0
E0
E0
E0
E0
E0
00
00
00
00
E0
E0
E0
E0
ENDCHAR
STARTCHAR 0022
ENCODING 34
SWIDTH 336 0
DWIDTH 14 0
BBX 7 11 3 18
BITMAP
C6
C6
C6
C6
C6
C6
C6
C6
C6
C6
C6
ENDCHAR
STARTCHAR 0023
ENCODING 35
SWIDTH 552 0
DWIDTH 23 0
BBX 21 30 1 1
BITMAP
01C1C0
01C1C0
01C1C0
01C1C0
0181C0
038180
038380
038380
038380
7FFFF8
7FFFF8
7FFFF8
070380
070300
070700
070700
070700
070700
FFFFF0
FFFFF0
FFFFF0
0E0E00
0E0E00
0E0E00
0E0E00
0E0E00
0C0E00
1C0C00
1C1C00
1C1C00
ENDCHAR
STARTCHAR 0024
ENCODING 36
SWIDTH 552 0
DWIDTH 23 0
BBX 17 38 2 -4
BITMAP
00C000
00C000
00C000
07F000
1FFC00
3FFE00
7C1F00
700700
E00780
E00380
E00380
E00000
E00000
F00000
780000
7E0000
3F8000
0FE000
03F800
00FC00
001E00
000F00
000780
000380
000380
000380
E00380
E00380
F00780
780700
7C1F00
3FFE00
1FFC00
07F000
00C000
00C000
00C000
00C000
ENDCHAR
STARTCHAR 0025
ENCODING 37
SWIDTH 888 0
DWIDTH 37 0
BBX 33 30 2 0
BITMAP
07C0030000
1FF0070000
3C78060000
701C0E0000
701C0E0000
E00E1C0000
E00E1C0000
E00E380000
E00E380000
E00E300000
701C700000
701C600000
3C78E00000
1FF0E00000
07C1C00000
0001C1F800
000387FE00
00038F0E00
00070E0700
00071C0300
00071C0380
000E1C0380
000E1C0380
001C1C0380
001C1C0380
00381C0300
00380E0700
0070079E00
007003FC00
007001F800
ENDCHAR
STARTCHAR 0026
ENCODING 38
SWIDTH 600 0
DWIDTH 25 0
BBX 23 30 1 0
BITMAP
01F000
07F800
0FFC00
0E1E00
1C0E00
1C0E00
1C0E00
1C0E00
1C0E00
1E1C00
0E3C00
0FF800
07F00E
07C00E
0FC01C
1FE03C
3CF038
78F078
707870
E03CE0
E01EE0
E00FC0
E007C0
E00780
F007C0
700FE0
781EF0
3FFCF0
1FF878
07E03C
ENDCHAR
STARTCHAR 0027
ENCODING 39
SWIDTH 216 0
DWIDTH 9 0
BBX 2 11 3 18
BITMAP
C0
C0
C0
C0
C0
C0
C0
C0
C0
C0
C0
ENDCHAR
STARTCHAR 0028
ENCODING 40
SWIDTH 384 0
DWIDTH 16 0
BBX 12 39 3 -7
BITMAP
0010
0070
00F0
01E0
03C0
0780
0F00
0E00
1C00
3C00
3800
3800
7000
7000
7000
E000
E000
E000
E000
E000
E000
E000
E000
E000
7000
7000
7000
3800
3800
3C00
1C00
0E00
0F00
0780
03C0
01E0
00F0
0030
0010
ENDCHAR
STARTCHAR 0029
ENCODING 41
SWIDTH 384 0
DWIDTH 16 0
BBX 12 39 1 -7
BITMAP
8000
E000
F000
7800
3C00
1E00
0F00
0780
0380
03C0
01C0
01E0
00E0
00E0
00F0
0070
0070
0070
0070
0070
0070
0070
0070
0070
00E0
00E0
00E0
01C0
01C0
03C0
0380
0700
0F00
1E00
3C00
7800
F000
C000
8000
ENDCHAR
STARTCHAR 002A
ENCODING 42
SWIDTH 456 0
DWIDTH 19 0
BBX 14 15 2 15
BITMAP
0300
0300
0300
6318
F33C
7B78
0FC0
0380
1FE0
7B78
F33C
6318
0300
0300
0300
ENDCHAR
STARTCHAR 002B
ENCODING 43
SWIDTH 600 0
DWIDTH 25 0
BBX 21 21 2 1
BITMAP
007000
007000
007000
007000
007000
007000
007000
007000
007000
FFFFF8
FFFFF8
FFFFF8
007000
007000
007000
007000
007000
007000
007000
007000
007000
ENDCHAR
STARTCHAR 002C
ENCODING 44
SWIDTH 288 0
DWIDTH 12 0
BBX 7 9 0 -5
BITMAP
0E
0E
1C
1C
38
38
70
70
E0
ENDCHAR
STARTCHAR 002D
ENCODING 45
SWIDTH 336 0
DWIDTH 14 0
BBX 10 3 2 10
BITMAP
FFC0
FFC0
FFC0
ENDCHAR
STARTCHAR 002E
ENCODING 46
SWIDTH 288 0
DWIDTH 12 0
BBX 3 4 4 1
BITMAP
E0
E0
E0
E0
ENDCHAR
STARTCHAR 002F
ENCODING 47
SWIDTH 288 0
DWIDTH 12 0
BBX 13 30 -1 0
BITMAP
0038
0038
0070
0070
0060
00E0
00E0
00C0
01C0
01C0
0180
0380
0380
0300
0700
0700
0600
0E00
0E00
0C00
1C00
1C00
3800
3800
3800
7000
7000
7000
E000
E000
ENDCHAR
STARTCHAR 0030
ENCODING 48
SWIDTH 552 0
DWIDTH 23 0
BBX 20 30 1 0
BITMAP
01F800
07FE00
0FFF00
1F0F80
3C03C0
3801C0
7801E0
7000E0
7000E0
7000F0
E00070
E00070
E00070
E00070
E00070
E00070
E00070
E00070
E00070
E00070
F000F0
7000E0
7000E0
7801E0
3801C0
3C03C0
1F0F80
0FFF00
07FE00
01F800
ENDCHAR
STARTCHAR 0031
ENCODING 49
SWIDTH 552 0
DWIDTH 23 0
BBX 8 30 6 0
BITMAP
FF
FF
FF
07
07
07
07
07
07
07
07
07
07
07
07
07
07
07
07
07
07
07
07
07
07
07
07
07
07
07
ENDCHAR
STARTCHAR 0032
ENCODING 50
SWIDTH 552 0
DWIDTH 23 0
BBX 18 30 2 0
BITMAP
03F800
0FFE00
3FFF00
3C0F80
780380
7003C0
F001C0
E001C0
E001C0
E001C0
0001C0
000380
000380
000700
000F00
001E00
003C00
007800
00F000
01E000
03C000
078000
070000
0E0000
1C0000
380000
700000
FFFFC0
FFFFC0
FFFFC0
ENDCHAR
STARTCHAR 0033
ENCODING 51
SWIDTH 552 0
DWIDTH 23 0
BBX 19 30 1 0
BITMAP
03F800
0FFE00
3FFF00
7C0780
7003C0
F001C0
E001C0
E001C0
0001C0
0001C0
000380
000780
00FE00
00F800
00FF00
000F80
0003C0
0001C0
0000E0
0000E0
0000E0
E000E0
E000E0
E000E0
7001E0
7801C0
3C07C0
3FFF80
0FFE00
03F800
ENDCHAR
STARTCHAR 0034
ENCODING 52
SWIDTH 552 0
DWIDTH 23 0
BBX 19 30 2 0
BITMAP
001E00
003E00
003E00
007E00
007E00
00EE00
01EE00
01CE00
03CE00
038E00
070E00
070E00
0E0E00
1E0E00
1C0E00
3C0E00
380E00
700E00
700E00
E00E00
FFFFE0
FFFFE0
FFFFE0
000E00
000E00
000E00
000E00
000E00
000E00
000E00
ENDCHAR
STARTCHAR 0035
ENCODING 53
SWIDTH 552 0
DWIDTH 23 0
BBX 18 30 2 0
BITMAP
3FFF00
3FFF00
3FFF00
380000
380000
300000
300000
300000
300000
71F800
77FE00
7FFF00
7C0F00
780780
700380
7003C0
7001C0
0001C0
0001C0
0001C0
0001C0
E001C0
E001C0
E00380
F00380
780780
7C0F00
3FFE00
1FFC00
07F000
ENDCHAR
STARTCHAR 0036
ENCODING 54
SWIDTH 552 0
DWIDTH 23 0
BBX 19 30 2 0
BITMAP
01FC00
07FF00
0FFF80
1F07C0
3C03C0
3801E0
7000E0
7000E0
700000
600000
E1F800
E7FE00
EFFF00
EE0F80
FC03C0
F801C0
F001E0
F000E0
F000E0
F000E0
F000E0
7000E0
7000E0
7001E0
3801C0
3C03C0
1E0F80
1FFF00
07FE00
03F800
ENDCHAR
STARTCHAR 0037
ENCODING 55
SWIDTH 552 0
DWIDTH 23 0
BBX 18 30 2 0
BITMAP
FFFFC0
FFFFC0
FFFFC0
0003C0
000380
000380
000780
000700
000700
000F00
000E00
001E00
001E00
001C00
003C00
003800
003800
007800
007000
00F000
00F000
00E000
01E000
01E000
01C000
03C000
038000
078000
078000
070000
ENDCHAR
STARTCHAR 0038
ENCODING 56
SWIDTH 552 0
DWIDTH 23 0
BBX 19 30 2 0
BITMAP
03F800
0FFE00
1FFF00
3C0780
3803C0
7001C0
7001C0
7001C0
7001C0
7803C0
380380
3E0F80
1FFF00
07FC00
1FFF00
3E0F80
7803C0
7001C0
F001E0
E000E0
E000E0
E000E0
E000E0
F000E0
7001C0
7803C0
3C0780
1FFF00
0FFE00
03F800
ENDCHAR
STARTCHAR 0039
ENCODING 57
SWIDTH 552 0
DWIDTH 23 0
BBX 19 30 2 0
BITMAP
03F800
0FFE00
1FFF00
3E0F80
780780
7003C0
F001C0
E001C0
E001E0
E001E0
E001E0
E001E0
F001E0
7003E0
7807E0
3E0FE0
1FFEE0
0FFCE0
03F0E0
0000E0
0000C0
E001C0
E001C0
F003C0
F00380
780780
7C1F00
3FFE00
1FFC00
07F000
ENDCHAR
STARTCHAR 003A
ENCODING 58
SWIDTH 288 0
DWIDTH 12 0
BBX 3 19 4 1
BITMAP
E0
E0
E0
E0
00
00
00
00
00
00
00
00
00
00
00
E0
E0
E0
E0
ENDCHAR
STARTCHAR 003B
ENCODING 59
SWIDTH 288 0
DWIDTH 12 0
BBX 7 24 0 -5
BITMAP
0E
0E
0E
0E
00
00
00
00
00
00
00
00
00
00
00
0E
0E
1C
1C
38
30
70
60
E0
ENDCHAR
STARTCHAR 003C
ENCODING 60
SWIDTH 600 0
DWIDTH 25 0
BBX 21 21 2 0
BITMAP
000018
000078
0001F8
000FE0
003F80
00FE00
03F800
0FC000
3F0000
FC0000
F00000
FC0000
3F8000
0FE000
03F800
00FE00
001FC0
0007F0
0001F8
000078
000018
ENDCHAR
STARTCHAR 003D
ENCODING 61
SWIDTH 600 0
DWIDTH 25 0
BBX 21 11 2 5
BITMAP
FFFFF8
FFFFF8
FFFFF8
000000
000000
000000
000000
000000
FFFFF8
FFFFF8
FFFFF8
ENDCHAR
STARTCHAR 003E
ENCODING 62
SWIDTH 600 0
DWIDTH 25 0
BBX 21 22 2 0
BITMAP
800000
E00000
F80000
FE0000
3F8000
07F000
01FC00
007F00
001FC0
0007F0
0000F8
0000F8
0003F8
000FC0
007F00
01FC00
07F000
1FC000
7F0000
F80000
E00000
800000
ENDCHAR
STARTCHAR 003F
ENCODING 63
SWIDTH 456 0
DWIDTH 19 0
BBX 16 30 1 0
BITMAP
07E0
1FF8
3FFC
781E
700E
F007
E007
E007
E007
E007
000F
000E
001E
007C
00F8
01E0
03C0
0380
0380
0380
0380
0380
0380
0000
0000
0000
0380
0380
0380
0380
ENDCHAR
STARTCHAR 0040
ENCODING 64
SWIDTH 792 0
DWIDTH 33 0
BBX 30 30 2 0
BITMAP
001FF000
007FFE00
01FFFF00
07C007C0
0F0001E0
1E0000F0
1C07C070
381FE738
783FFE38
70787E1C
70F03E1C
E1E03C1C
E1C01C1C
E1C01C1C
E3801C1C
E380383C
E3803838
E3807838
F3807070
73C0F0E0
71E1F1E0
39FFFF80
3CFF7F00
1C3C3C70
1E0000F0
0F8001E0
03E007C0
01FFFF00
007FFC00
001FF000
ENDCHAR
STARTCHAR 0041
ENCODING 65
SWIDTH 504 0
DWIDTH 21 0
BBX 21 30 0 0
BITMAP
00F800
00F800
00F800
01DC00
01DC00
01DC00
039C00
038E00
038E00
038E00
070F00
070700
070700
060700
0E0380
0E0380
0E0380
1C03C0
1FFFC0
1FFFC0
1FFFC0
3801E0
3800E0
3800E0
3000E0
700070
700070
700070
E00078
E00038
ENDCHAR
STARTCHAR 0042
ENCODING 66
SWIDTH 552 0
DWIDTH 23 0
BBX 18 30 3 0
BITMAP
FFF000
FFFC00
FFFE00
E00F00
E00780
E00380
E00380
E00380
E00380
E00380
E00780
E00700
E01F00
FFFE00
FFFC00
FFFF00
E00F80
E00380
E003C0
E001C0
E001C0
E001C0
E001C0
E001C0
E003C0
E00380
E00780
FFFF00
FFFE00
FFF800
ENDCHAR
STARTCHAR 0043
ENCODING 67
SWIDTH 552 0
DWIDTH 23 0
BBX 21 30 1 0
BITMAP
00FC00
03FF00
0FFFC0
1F03E0
1C01E0
3800F0
380070
700078
700038
700038
E00038
E00000
E00000
E00000
E00000
E00000
E00000
E00000
E00000
E00038
700038
700038
700038
380070
3C0070
1C00F0
1F01E0
0FFFC0
07FF80
01FC00
ENDCHAR
STARTCHAR 0044
ENCODING 68
SWIDTH 600 0
DWIDTH 25 0
BBX 21 30 3 0
BITMAP
FFF800
FFFE00
FFFF80
E007C0
E003C0
E001E0
E000E0
E00070
E00070
E00070
E00038
E00038
E00038
E00038
E00038
E00038
E00038
E00038
E00038
E00038
E00070
E00070
E00070
E000E0
E001E0
E003C0
E00780
FFFF00
FFFE00
FFF800
ENDCHAR
STARTCHAR 0045
ENCODING 69
SWIDTH 504 0
DWIDTH 21 0
BBX 15 30 3 0
BITMAP
FFFE
FFFE
FFFE
E000
E000
E000
E000
E000
E000
E000
E000
E000
E000
FFFE
FFFE
FFFE
E000
E000
E000
E000
E000
E000
E000
E000
E000
E000
E000
FFFE
FFFE
FFFE
ENDCHAR
STARTCHAR 0046
ENCODING 70
SWIDTH 456 0
DWIDTH 19 0
BBX 14 30 3 0
BITMAP
FFFC
FFFC
FFFC
E000
E000
E000
E000
E000
E000
E000
E000
E000
E000
FFFC
FFFC
FFFC
E000
E000
E000
E000
E000
E000
E000
E000
E000
E000
E000
E000
E000
E000
ENDCHAR
STARTCHAR 0047
ENCODING 71
SWIDTH 600 0
DWIDTH 25 0
BBX 23 30 1 0
BITMAP
00FE00
03FFC0
0FFFE0
1F01F0
1C0078
380038
38003C
70001C
70001C
70001C
E00000
E00000
E00000
E00000
E00000
E07FFE
E07FFE
E07FFE
E0000E
E0000E
70000E
70000E
70001E
38001C
38001C
1C0038
1F00F8
0FFFF0
03FFC0
00FF00
ENDCHAR
STARTCHAR 0048
ENCODING 72
SWIDTH 600 0
DWIDTH 25 0
BBX 19 30 3 0
BITMAP
E000E0
E000E0
E000E0
E000E0
E000E0
E000E0
E000E0
E000E0
E000E0
E000E0
E000E0
E000E0
E000E0
FFFFE0
FFFFE0
FFFFE0
E000E0
E000E0
E000E0
E000E0
E000E0
E000E0
E000E0
E000E0
E000E0
E000E0
E000E0
E000E0
E000E0
E000E0
ENDCHAR
STARTCHAR 0049
ENCODING 73
SWIDTH 216 0
DWIDTH 9 0
BBX 3 30 3 0
BITMAP
E0
E0
E0
E0
E0
E0
E0
E0
E0
E0
E0
E0
E0
E0
E0
E0
E0
E0
E0
E0
E0
E0
E0
E0
E0
E0
E0
E0
E0
E0
ENDCHAR
STARTCHAR 004A
ENCODING 74
SWIDTH 456 0
DWIDTH 19 0
BBX 15 30 0 0
BITMAP
000E
000E
000E
000E
000E
000E
000E
000E
000E
000E
000E
000E
000E
000E
000E
000E
000E
000E
000E
000E
000E
000E
E00E
E00E
E00E
F01C
783C
7FFC
3FF8
0FE0
ENDCHAR
STARTCHAR 004B
ENCODING 75
SWIDTH 552 0
DWIDTH 23 0
BBX 19 30 3 0
BITMAP
E003C0
E00780
E00F00
E00E00
E01E00
E03C00
E03800
E07000
E0F000
E1E000
E1C000
E3C000
E7C000
E7E000
EEE000
FEF000
FC7800
F87800
F03C00
F03C00
E01E00
E01E00
E00F00
E00F00
E00780
E00780
E003C0
E001C0
E001E0
E000E0
ENDCHAR
STARTCHAR 004C
ENCODING 76
SWIDTH 456 0
DWIDTH 19 0
BBX 15 30 3 0
BITMAP
E000
E000
E000
E000
E000
E000
E000
E000
E000
E000
E000
E000
E000
E000
E000
E000
E000
E000
E000
E000
E000
E000
E000
E000
E000
E000
E000
FFFE
FFFE
FFFE
ENDCHAR
STARTCHAR 004D
ENCODING 77
SWIDTH 720 0
DWIDTH 30 0
BBX 24 30 3 0
BITMAP
F8001F
F8001F
F8001F
FC003F
FC003F
FC003F
FE003F
EE0077
EE0077
EF0077
E700E7
E700E7
E780E7
E380E7
E381C7
E381C7
E1C1C7
E1C387
E1C387
E0E387
E0E307
E0E707
E0F707
E07707
E07E07
E07E07
E03E07
E03C07
E03C07
E01C07
ENDCHAR
STARTCHAR 004E
ENCODING 78
SWIDTH 600 0
DWIDTH 25 0
BBX 19 30 3 0
BITMAP
F000E0
F000E0
F800E0
F800E0
FC00E0
FC00E0
FE00E0
EE00E0
EF00E0
E780E0
E780E0
E3C0E0
E1C0E0
E1E0E0
E0E0E0
E0F0E0
E070E0
E078E0
E03CE0
E03CE0
E01EE0
E01EE0
E00FE0
E007E0
E007E0
E003E0
E003E0
E001E0
E001E0
E000E0
ENDCHAR
STARTCHAR 004F
ENCODING 79
SWIDTH 600 0
DWIDTH 25 0
BBX 23 30 1 0
BITMAP
00FE00
03FF80
0FFFE0
1F01F0
1C0070
380038
38003C
70001C
70001C
70001C
E0000E
E0000E
E0000E
E0000E
E0000E
E0000E
E0000E
E0000E
E0000E
E0000E
70001C
70001C
70001C
380038
380038
1C0070
1F01F0
0FFFE0
03FF80
00FE00
ENDCHAR
STARTCHAR 0050
ENCODING 80
SWIDTH 552 0
DWIDTH 23 0
BBX 18 30 3 0
BITMAP
FFF800
FFFE00
FFFF00
E00F80
E00380
E003C0
E001C0
E001C0
E001C0
E001C0
E001C0
E001C0
E003C0
E00380
E00F80
FFFF00
FFFE00
FFF800
E00000
E00000
E00000
E00000
E00000
E00000
E00000
E00000
E00000
E00000
E00000
E00000
ENDCHAR
STARTCHAR 0051
ENCODING 81
SWIDTH 600 0
DWIDTH 25 0
BBX 24 30 1 0
BITMAP
00FE00
03FF80
0FFFE0
1F01F0
1C0070
380038
380038
70001C
70001C
70001C
E0000E
E0000E
E0000E
E0000E
E0000E
E0000E
E0000E
E0000E
E0000E
E0000E
7FE00E
7FF81C
7FFE1C
783F1C
380FB8
1C07F8
1F03F0
0FFFFF
03FFFF
00FE1F
ENDCHAR
STARTCHAR 0052
ENCODING 82
SWIDTH 552 0
DWIDTH 23 0
BBX 18 30 3 0
BITMAP
FFF800
FFFE00
FFFF00
E00F80
E00380
E003C0
E001C0
E001C0
E001C0
E001C0
E001C0
E001C0
E003C0
E00380
E00F80
E3FF00
E3FE00
E1F800
E0E000
E0F000
E07000
E03800
E03C00
E01C00
E00E00
E00F00
E00700
E00380
E003C0
E001C0
ENDCHAR
STARTCHAR 0053
ENCODING 83
SWIDTH 504 0
DWIDTH 21 0
BBX 19 30 1 0
BITMAP
03F800
1FFE00
3FFF00
780F80
700380
E003C0
E001C0
E001C0
E001C0
E00000
F00000
780000
3F0000
1FE000
07FC00
01FF00
001F80
0007C0
0001C0
0001E0
0000E0
E000E0
E000E0
E000E0
F001E0
7001C0
7C07C0
3FFF80
1FFE00
07F800
ENDCHAR
STARTCHAR 0054
ENCODING 84
SWIDTH 456 0
DWIDTH 19 0
BBX 17 30 1 0
BITMAP
FFFF80
FFFF80
FFFF80
01C000
01C000
01C000
01C000
01C000
01C000
01C000
01C000
01C000
01C000
01C000
01C000
01C000
01C000
01C000
01C000
01C000
01C000
01C000
01C000
01C000
01C000
01C000
01C000
01C000
01C000
01C000
ENDCHAR
STARTCHAR 0055
ENCODING 85
SWIDTH 552 0
DWIDTH 23 0
BBX 18 30 2 0
BITMAP
E001C0
E001C0
E001C0
E001C0
E001C0
E001C0
E001C0
E001C0
E001C0
E001C0
E001C0
E001C0
E001C0
E001C0
E001C0
E001C0
E001C0
E001C0
E001C0
E001C0
E001C0
E001C0
E001C0
E001C0
F003C0
700380
7C0F80
3FFF00
1FFE00
07F800
ENDCHAR
STARTCHAR 0056
ENCODING 86
SWIDTH 504 0
DWIDTH 21 0
BBX 21 30 0 0
BITMAP
E00038
F00038
700070
700070
700070
380070
3800E0
3800E0
3C00E0
1C01E0
1C01C0
1C01C0
0E01C0
0E0380
0E0380
0F0380
070380
070700
070700
038700
038700
038E00
038E00
01CE00
01CE00
01DC00
00FC00
00FC00
00F800
007800
ENDCHAR
STARTCHAR 0057
ENCODING 87
SWIDTH 840 0
DWIDTH 35 0
BBX 34 30 0 0
BITMAP
E001E001C0
E001E003C0
E003E00380
7003F00380
7003F00380
7003F00700
3803F00700
3807300700
3807380700
3807380E00
1C07380E00
1C07380E00
1C06380E00
1E0E181C00
0E0E1C1C00
0E0E1C1C00
0E0E1C1800
070E1C3800
071C0C3800
071C0E3800
071C0E7000
039C0E7000
039C0E7000
0398066000
01F807E000
01F807E000
01F807E000
01F807C000
00F807C000
00F003C000
ENDCHAR
STARTCHAR 0058
ENCODING 88
SWIDTH 504 0
DWIDTH 21 0
BBX 21 30 0 0
BITMAP
7800E0
3801E0
3C01C0
1C03C0
1E0380
0E0780
0F0700
070F00
078E00
039E00
03DC00
01FC00
00F800
00F800
00F800
00F800
01FC00
01DC00
03DE00
038E00
078F00
070700
0F0780
1E0380
1E01C0
3C01E0
3C00E0
7800F0
700070
F00078
ENDCHAR
STARTCHAR 0059
ENCODING 89
SWIDTH 504 0
DWIDTH 21 0
BBX 19 30 1 0
BITMAP
E000E0
F001E0
7001C0
7803C0
380380
380380
3C0780
1C0700
1E0F00
0E0E00
0F1E00
071C00
07BC00
03B800
03B800
01F000
01F000
00E000
00E000
00E000
00E000
00E000
00E000
00E000
00E000
00E000
00E000
00E000
00E000
00E000
ENDCHAR
STARTCHAR 005A
ENCODING 90
SWIDTH 456 0
DWIDTH 19 0
BBX 17 30 1 0
BITMAP
FFFF80
FFFF80
FFFF80
000F00
000F00
001E00
001E00
003C00
003C00
007800
007800
00F000
00F000
01E000
01E000
03C000
03C000
078000
070000
0F0000
0E0000
1E0000
1C0000
3C0000
380000
780000
700000
FFFF80
FFFF80
FFFF80
ENDCHAR
STARTCHAR 005B
ENCODING 91
SWIDTH 384 0
DWIDTH 16 0
BBX 10 38 4 -8
BITMAP
FFC0
FFC0
FFC0
E000
E000
E000
E000
E000
E000
E000
E000
E000
E000
E000
E000
E000
E000
E000
E000
E000
E000
E000
E000
E000
E000
E000
E000
E000
E000
E000
E000
E000
E000
E000
E000
FFC0
FFC0
FFC0
ENDCHAR
STARTCHAR 005C
ENCODING 92
SWIDTH 288 0
DWIDTH 12 0
BBX 13 30 -1 0
BITMAP
E000
F000
7000
7000
3800
3800
3800
1C00
1C00
1C00
0E00
0E00
0E00
0700
0700
0700
0380
0380
0380
01C0
01C0
01C0
00E0
00E0
00E0
0070
0070
0070
0038
0038
ENDCHAR
STARTCHAR 005D
ENCODING 93
SWIDTH 384 0
DWIDTH 16 0
BBX 10 38 2 -8
BITMAP
FFC0
FFC0
FFC0
01C0
01C0
01C0
01C0
01C0
01C0
01C0
01C0
01C0
01C0
01C0
01C0
01C0
01C0
01C0
01C0
01C0
01C0
01C0
01C0
01C0
01C0
01C0
01C0
01C0
01C0
01C0
01C0
01C0
01C0
01C0
01C0
FFC0
FFC0
FFC0
ENDCHAR
STARTCHAR 005E
ENCODING 94
SWIDTH 600 0
DWIDTH 25 0
BBX 20 18 3 11
BITMAP
00E000
01F000
01F000
03F800
03B800
07BC00
071C00
0F1E00
0E0E00
1E0F00
1C0700
1C0780
380380
3803C0
7001C0
7001E0
E000E0
E000F0
ENDCHAR
STARTCHAR 005F
ENCODING 95
SWIDTH 504 0
DWIDTH 21 0
BBX 21 2 0 -6
BITMAP
FFFFF8
FFFFF8
ENDCHAR
STARTCHAR 0060
ENCODING 96
SWIDTH 216 0
DWIDTH 9 0
BBX 7 6 0 25
BITMAP
E0
70
30
38
1C
0E
ENDCHAR
STARTCHAR 0061
ENCODING 97
SWIDTH 504 0
DWIDTH 21 0
BBX 18 23 1 0
BITMAP
03F1C0
0FF9C0
1FFDC0
3C0FC0
7807C0
7003C0
7003C0
E001C0
E001C0
E001C0
E001C0
E001C0
E001C0
E001C0
E001C0
F001C0
7003C0
7003C0
7807C0
3C0FC0
1FFDC0
0FFDC0
03F1C0
ENDCHAR
STARTCHAR 0062
ENCODING 98
SWIDTH 504 0
DWIDTH 21 0
BBX 16 30 3 0
BITMAP
E000
E000
E000
E000
E000
E000
E000
E3E0
EFF8
FFFC
F83C
F00E
F00E
F00E
E007
E007
E007
E007
E007
E007
E007
E007
E007
F00E
F00E
F01E
F83C
FFFC
EFF8
E3E0
ENDCHAR
STARTCHAR 0063
ENCODING 99
SWIDTH 456 0
DWIDTH 19 0
BBX 16 23 1 0
BITMAP
07E0
0FF8
1FFC
3C1E
780E
700F
7007
E007
E000
E000
E000
E000
E000
E000
E000
E007
7007
7007
780E
3C1E
3FFC
1FF8
07E0
ENDCHAR
STARTCHAR 0064
ENCODING 100
SWIDTH 504 0
DWIDTH 21 0
BBX 17 30 1 0
BITMAP
000380
000380
000380
000380
000380
000380
000380
03E380
0FFB80
1FFF80
3C1F80
780F80
700780
700780
E00380
E00380
E00380
E00380
E00380
E00380
E00380
E00380
E00380
700780
700780
780F80
3C1F80
1FFF80
0FFB80
07E380
ENDCHAR
STARTCHAR 0065
ENCODING 101
SWIDTH 456 0
DWIDTH 19 0
BBX 16 23 1 0
BITMAP
03E0
0FF8
1FFC
3C1C
380E
700E
7007
E007
E007
E007
FFFF
FFFF
FFFF
E000
E000
E007
7007
700F
780E
3C1E
1FFC
0FF8
03E0
ENDCHAR
STARTCHAR 0066
ENCODING 102
SWIDTH 216 0
DWIDTH 9 0
BBX 10 30 0 0
BITMAP
07C0
0FC0
1FC0
1C00
1C00
1C00
1C00
FFC0
FFC0
FFC0
1C00
1C00
1C00
1C00
1C00
1C00
1C00
1C00
1C00
1C00
1C00
1C00
1C00
1C00
1C00
1C00
1C00
1C00
1C00
1C00
ENDCHAR
STARTCHAR 0067
ENCODING 103
SWIDTH 504 0
DWIDTH 21 0
BBX 17 31 1 -8
BITMAP
07E380
0FFB80
1FFF80
3C1F80
780F80
700780
700780
E00380
E00380
E00380
E00380
E00380
E00380
E00380
E00380
E00380
700780
700780
780F80
3C1F80
1FFB80
0FFB80
07E380
000380
E00380
E00380
F00780
780F00
7FFF00
1FFC00
07F000
ENDCHAR
STARTCHAR 0068
ENCODING 104
SWIDTH 504 0
DWIDTH 21 0
BBX 15 30 3 0
BITMAP
E000
E000
E000
E000
E000
E000
E000
E3E0
EFF8
FFFC
F83C
F01E
F00E
E00E
E00E
E00E
E00E
E00E
E00E
E00E
E00E
E00E
E00E
E00E
E00E
E00E
E00E
E00E
E00E
E00E
ENDCHAR
STARTCHAR 0069
ENCODING 105
SWIDTH 216 0
DWIDTH 9 0
BBX 3 30 3 1
BITMAP
E0
E0
E0
E0
00
00
00
E0
E0
E0
E0
E0
E0
E0
E0
E0
E0
E0
E0
E0
E0
E0
E0
E0
E0
E0
E0
E0
E0
E0
ENDCHAR
STARTCHAR 006A
ENCODING 106
SWIDTH 216 0
DWIDTH 9 0
BBX 8 39 -2 -7
BITMAP
07
07
07
07
00
00
00
00
07
07
07
07
07
07
07
07
07
07
07
07
07
07
07
07
07
07
07
07
07
07
07
07
07
07
07
0F
FE
FE
F8
ENDCHAR
STARTCHAR 006B
ENCODING 107
SWIDTH 456 0
DWIDTH 19 0
BBX 15 30 3 0
BITMAP
E000
E000
E000
E000
E000
E000
E000
E01C
E03C
E038
E070
E0E0
E0E0
E1C0
E380
E380
E780
EFC0
EDC0
FDE0
F8E0
F0F0
E070
E078
E038
E038
E01C
E01C
E00E
E00E
ENDCHAR
STARTCHAR 006C
ENCODING 108
SWIDTH 216 0
DWIDTH 9 0
BBX 3 30 3 0
BITMAP
E0
E0
E0
E0
E0
E0
E0
E0
E0
E0
E0
E0
E0
E0
E0
E0
E0
E0
E0
E0
E0
E0
E0
E0
E0
E0
E0
E0
E0
E0
ENDCHAR
STARTCHAR 006D
ENCODING 109
SWIDTH 768 0
DWIDTH 32 0
BBX 27 23 3 0
BITMAP
E3E07E00
EFF8FF80
EFFDFFC0
F81F81C0
F01F01E0
F00F00E0
E00E00E0
E00E00E0
E00E00E0
E00E00E0
E00E00E0
E00E00E0
E00E00E0
E00E00E0
E00E00E0
E00E00E0
E00E00E0
E00E00E0
E00E00E0
E00E00E0
E00E00E0
E00E00E0
E00E00E0
ENDCHAR
STARTCHAR 006E
ENCODING 110
SWIDTH 504 0
DWIDTH 21 0
BBX 15 23 3 0
BITMAP
E3E0
EFF8
EFFC
F83C
F01E
F00E
E00E
E00E
E00E
E00E
E00E
E00E
E00E
E00E
E00E
E00E
E00E
E00E
E00E
E00E
E00E
E00E
E00E
ENDCHAR
STARTCHAR 006F
ENCODING 111
SWIDTH 504 0
DWIDTH 21 0
BBX 18 23 1 0
BITMAP
03F000
0FFC00
1FFE00
3C0F00
780780
700380
700380
F003C0
E001C0
E001C0
E001C0
E001C0
E001C0
E001C0
E001C0
F001C0
700380
700380
780780
3C0F00
1FFE00
0FFC00
03F000
ENDCHAR
STARTCHAR 0070
ENCODING 112
SWIDTH 504 0
DWIDTH 21 0
BBX 16 31 3 -8
BITMAP
E3E0
EFF8
FFFC
F83C
F01E
F00E
F00E
E007
E007
E007
E007
E007
E007
E007
E007
E007
F00E
F00E
F00E
F81C
FFFC
EFF0
E3E0
E000
E000
E000
E000
E000
E000
E000
E000
ENDCHAR
STARTCHAR 0071
ENCODING 113
SWIDTH 504 0
DWIDTH 21 0
BBX 17 31 1 -8
BITMAP
07E380
0FFB80
1FFF80
3C1F80
780F80
700780
700780
E00380
E00380
E00380
E00380
E00380
E00380
E00380
E00380
E00380
700780
700780
780F80
3C1F80
1FFF80
0FFB80
07E380
000380
000380
000380
000380
000380
000380
000380
000380
ENDCHAR
STARTCHAR 0072
ENCODING 114
SWIDTH 288 0
DWIDTH 12 0
BBX 9 23 3 0
BITMAP
E380
EF80
FF80
FC00
F000
F000
E000
E000
E000
E000
E000
E000
E000
E000
E000
E000
E000
E000
E000
E000
E000
E000
E000
ENDCHAR
STARTCHAR 0073
ENCODING 115
SWIDTH 456 0
DWIDTH 19 0
BBX 16 23 1 0
BITMAP
07F0
1FFC
3FFE
381E
700F
7007
7007
7000
7800
3F00
1FE0
0FFC
01FE
001E
000F
0007
E007
E007
F007
781E
3FFE
1FF8
07F0
ENDCHAR
STARTCHAR 0074
ENCODING 116
SWIDTH 216 0
DWIDTH 9 0
BBX 10 30 0 1
BITMAP
1C00
1C00
1C00
1C00
1C00
1C00
1C00
FFC0
FFC0
FFC0
1C00
1C00
1C00
1C00
1C00
1C00
1C00
1C00
1C00
1C00
1C00
1C00
1C00
1C00
1C00
1C00
1C00
1C00
1C00
1C00
ENDCHAR
STARTCHAR 0075
ENCODING 117
SWIDTH 504 0
DWIDTH 21 0
BBX 15 23 3 0
BITMAP
E00E
E00E
E00E
E00E
E00E
E00E
E00E
E00E
E00E
E00E
E00E
E00E
E00E
E00E
E00E
E00E
E00E
E01E
F01E
783E
7FFE
3FEE
0F8E
ENDCHAR
STARTCHAR 0076
ENCODING 118
SWIDTH 456 0
DWIDTH 19 0
BBX 18 23 0 0
BITMAP
F003C0
F003C0
700380
700380
780780
380700
380700
3C0F00
1C0E00
1C0E00
1C0E00
1E1C00
0E1C00
0E1C00
0F3800
073800
073800
077800
07F000
03F000
03F000
03E000
01E000
ENDCHAR
STARTCHAR 0077
ENCODING 119
SWIDTH 672 0
DWIDTH 28 0
BBX 28 23 0 0
BITMAP
E00F0070
F00F0070
700F80E0
700F80E0
701F80E0
381F80C0
381981C0
3819C1C0
3819C1C0
1C39C180
1C38C380
1C38C380
0E30E380
0E30E300
0E70E700
0E706700
07706600
07607600
07607E00
03E07E00
03E03C00
03E03C00
03C03C00
ENDCHAR
STARTCHAR 0078
ENCODING 120
SWIDTH 456 0
DWIDTH 19 0
BBX 18 23 0 0
BITMAP
780380
380700
3C0F00
1E0E00
1E1E00
0F1C00
073800
07B800
03F000
03F000
01E000
01E000
03F000
03F000
073800
073C00
0E1C00
1E1E00
1C0E00
3C0F00
380780
700780
F003C0
ENDCHAR
STARTCHAR 0079
ENCODING 121
SWIDTH 456 0
DWIDTH 19 0
BBX 18 31 0 -8
BITMAP
E001C0
F003C0
700380
700380
780780
380700
380700
380F00
1C0E00
1C0E00
1C0E00
0E1C00
0E1C00
0E1C00
063800
073800
073800
037000
03F000
03F000
03E000
01E000
01E000
01C000
01C000
03C000
038000
038000
078000
070000
070000
ENDCHAR
STARTCHAR 007A
ENCODING 122
SWIDTH 456 0
DWIDTH 19 0
BBX 16 23 1 0
BITMAP
7FFF
7FFF
7FFF
000F
001E
003C
003C
0078
00F0
00E0
01E0
03C0
0380
0780
0F00
0E00
1E00
3C00
7800
7800
FFFF
FFFF
FFFF
ENDCHAR
STARTCHAR 007B
ENCODING 123
SWIDTH 384 0
DWIDTH 16 0
BBX 12 38 2 -8
BITMAP
0FF0
1FF0
3FF0
3800
3800
3800
3800
3800
3800
3800
3800
3800
3800
3800
3800
3800
3800
7800
F000
F000
7800
3800
3800
3800
3800
3800
3800
3800
3800
3800
3800
3800
3800
3800
3800
3FF0
1FF0
0FF0
ENDCHAR
STARTCHAR 007C
ENCODING 124
SWIDTH 216 0
DWIDTH 9 0
BBX 3 30 3 0
BITMAP
E0
E0
E0
E0
E0
E0
E0
E0
E0
E0
E0
E0
E0
E0
E0
E0
E0
E0
E0
E0
E0
E0
E0
E0
E0
E0
E0
E0
E0
E0
ENDCHAR
STARTCHAR 007D
ENCODING 125
SWIDTH 384 0
DWIDTH 16 0
BBX 12 38 2 -8
BITMAP
FF00
FF80
FFC0
01C0
01C0
01C0
01C0
01C0
01C0
01C0
01C0
01C0
01C0
01C0
01C0
01C0
01C0
01E0
00F0
00F0
01E0
01C0
01C0
01C0
01C0
01C0
01C0
01C0
01C0
01C0
01C0
01C0
01C0
01C0
01C0
FFC0
FF80
FF00
ENDCHAR
STARTCHAR 007E
ENCODING 126
SWIDTH 600 0
DWIDTH 25 0
BBX 19 6 3 7
BITMAP
1F0040
3FC060
7FF9E0
E0FFC0
403F80
400F00
ENDCHAR
STARTCHAR 00A0
ENCODING 160
SWIDTH 288 0
DWIDTH 12 0
BBX 0 0 0 0
BITMAP
ENDCHAR
STARTCHAR 00A1
ENCODING 161
SWIDTH 216 0
DWIDTH 9 0
BBX 3 30 3 -8
BITMAP
E0
E0
E0
E0
00
00
00
00
E0
E0
E0
E0
E0
E0
E0
E0
E0
E0
E0
E0
E0
E0
E0
E0
E0
E0
E0
E0
E0
E0
ENDCHAR
STARTCHAR 00A2
ENCODING 162
SWIDTH 552 0
DWIDTH 23 0
BBX 16 30 3 0
BITMAP
0180
0180
0180
0180
07F0
1FF8
3FFC
381E
700E
7007
6007
E007
E000
E000
E000
E000
E000
E000
E007
F007
7007
700E
381E
3FFC
1FF8
07E0
0180
0180
0180
0180
ENDCHAR
STARTCHAR 00A3
ENCODING 163
SWIDTH 552 0
DWIDTH 23 0
BBX 20 30 1 0
BITMAP
01F800
07FE00
0FFF80
1E0FC0
3C03C0
3801E0
7000E0
7000E0
700000
700000
700000
780000
380000
FFFF00
FFFF00
FFFF00
0F0000
078000
038000
03C070
01C070
01C070
01C070
01C070
01C0F0
03C0E0
0383E0
7FFFC0
7FFF80
7FFE00
ENDCHAR
STARTCHAR 00A4
ENCODING 164
SWIDTH 552 0
DWIDTH 23 0
BBX 21 21 1 5
BITMAP
40FC10
E7FF38
7FFFF0
3F07E0
3C01E0
7800F0
700070
F00078
E00038
E00038
E00038
E00038
E00038
F00078
700070
7800F0
3C01E0
3F07E0
7FFFF0
E7FF38
41FC10
ENDCHAR
STARTCHAR 00A5
ENCODING 165
SWIDTH 552 0
DWIDTH 23 0
BBX 19 30 2 0
BITMAP
E000E0
F001E0
7001C0
7803C0
380380
3C0780
1C0700
1E0700
0E0E00
0E0E00
7F1FC0
7F1FC0
7FBFC0
03B800
01F000
01F000
00E000
7FFFC0
7FFFC0
7FFFC0
00E000
00E000
00E000
00E000
00E000
00E000
00E000
00E000
00E000
00E000
ENDCHAR
STARTCHAR 00A6
ENCODING 166
SWIDTH 216 0
DWIDTH 9 0
BBX 3 30 3 0
BITMAP
E0
E0
E0
E0
E0
E0
E0
E0
E0
E0
E0
E0
00
00
00
00
00
00
E0
E0
E0
E0
E0
E0
E0
E0
E0
E0
E0
E0
ENDCHAR
STARTCHAR 00A7
ENCODING 167
SWIDTH 456 0
DWIDTH 19 0
BBX 16 33 1 -4
BITMAP
03E0
0FF8
0E38
1C1C
1C00
1C00
1E00
0F00
0780
1FC0
7FE0
F0F0
E078
E03C
E01C
701E
780F
3C07
1E07
1F07
078F
03FE
01FC
00F0
0078
0038
003C
001C
101C
381C
3C38
1FF8
07E0
ENDCHAR
STARTCHAR 00A8
ENCODING 168
SWIDTH 216 0
DWIDTH 9 0
BBX 9 4 0 26
BITMAP
E380
E380
E380
E380
ENDCHAR
STARTCHAR 00A9
ENCODING 169
SWIDTH 792 0
DWIDTH 33 0
BBX 31 30 1 0
BITMAP
000FF000
007FFC00
01FFFF00
07E00FC0
0F8003E0
1E07C0F0
1C1FF870
383FFC38
78783E3C
70F00E1C
70E00E1C
E1E0070E
E1C0000E
E1C0000E
E1C0000E
E1C0000E
E1C0000E
E1C0000E
F0E0070E
70E00E1C
70F00E1C
387C3C38
3C3FF838
1C1FF070
0E07C0F0
0F8003E0
03E00F80
01FFFF00
007FFC00
000FE000
ENDCHAR
STARTCHAR 00AA
ENCODING 170
SWIDTH 312 0
DWIDTH 13 0
BBX 12 13 0 17
BITMAP
1F30
3FB0
79F0
7070
E070
E070
E070
E070
E070
7070
79F0
3FB0
1F30
ENDCHAR
STARTCHAR 00AB
ENCODING 171
SWIDTH 456 0
DWIDTH 19 0
BBX 15 15 2 4
BITMAP
070E
0E1C
1E38
1C38
3870
70E0
71C0
E1C0
71C0
70E0
3870
1C38
1E38
0E1C
070E
ENDCHAR
STARTCHAR 00AC
ENCODING 172
SWIDTH 600 0
DWIDTH 25 0
BBX 21 11 2 4
BITMAP
FFFFF8
FFFFF8
FFFFF8
000038
000038
000038
000038
000038
000038
000038
000038
ENDCHAR
STARTCHAR 00AD
ENCODING 173
SWIDTH 336 0
DWIDTH 14 0
BBX 10 3 2 10
BITMAP
FFC0
FFC0
FFC0
ENDCHAR
STARTCHAR 00AE
ENCODING 174
SWIDTH 792 0
DWIDTH 33 0
BBX 31 30 1 0
BITMAP
000FF000
007FFE00
01FFFF00
03E007C0
078001E0
0E0000F0
1C3FF078
383FFC38
38383E3C
70380E1C
70380E1C
E0380E0E
E0380E0E
E0383C0E
E03FFC0E
E03FF00E
E038E00E
E038700E
F038700E
7038381C
70383C1C
38381C3C
3C381E38
1E380E70
1F0000F0
0F8001E0
03E00780
01FFFF00
007FFC00
000FE000
ENDCHAR
STARTCHAR 00AF
ENCODING 175
SWIDTH 216 0
DWIDTH 9 0
BBX 12 2 -1 27
BITMAP
FFF0
FFF0
ENDCHAR
STARTCHAR 00B0
ENCODING 176
SWIDTH 408 0
DWIDTH 17 0
BBX 12 11 2 18
BITMAP
0F80
3FC0
70E0
E070
C030
C030
C030
E070
70E0
3FC0
1F80
ENDCHAR
STARTCHAR 00B1
ENCODING 177
SWIDTH 600 0
DWIDTH 25 0
BBX 21 21 2 0
BITMAP
007000
007000
007000
007000
007000
007000
007000
FFFFF8
FFFFF8
FFFFF8
007000
007000
007000
007000
007000
007000
007000
000000
FFFFF8
FFFFF8
FFFFF8
ENDCHAR
STARTCHAR 00B2
ENCODING 178
SWIDTH 336 0
DWIDTH 14 0
BBX 12 18 1 12
BITMAP
1F80
3FE0
79F0
F070
E070
E070
0070
00F0
00E0
03C0
0780
0F00
1E00
3C00
7800
FFF0
FFF0
FFF0
ENDCHAR
STARTCHAR 00B3
ENCODING 179
SWIDTH 336 0
DWIDTH 14 0
BBX 13 18 1 12
BITMAP
0F80
3FE0
3CF0
7070
7070
0070
00F0
07E0
07E0
01F0
0078
0038
0038
E038
F038
7CF0
3FE0
1FC0
ENDCHAR
STARTCHAR 00B4
ENCODING 180
SWIDTH 216 0
DWIDTH 9 0
BBX 7 6 3 25
BITMAP
1E
1C
38
70
E0
C0
ENDCHAR
STARTCHAR 00B5
ENCODING 181
SWIDTH 504 0
DWIDTH 21 0
BBX 15 31 3 -8
BITMAP
E00E
E00E
E00E
E00E
E00E
E00E
E00E
E00E
E00E
E00E
E00E
E00E
E00E
E00E
E00E
E00E
E00E
E01E
F01E
F83E
FFFE
FFEE
FF8E
E000
E000
E000
E000
E000
E000
E000
E000
ENDCHAR
STARTCHAR 00B6
ENCODING 182
SWIDTH 600 0
DWIDTH 25 0
BBX 19 34 2 -5
BITMAP
03FFE0
0FFFE0
3FF0E0
3FF0E0
7FF0E0
7FF0E0
FFF0E0
FFF0E0
FFF0E0
FFF0E0
7FF0E0
7FF0E0
3FF0E0
1FF0E0
0FF0E0
03F0E0
0070E0
0070E0
0070E0
0070E0
0070E0
0070E0
0070E0
0070E0
0070E0
0070E0
0070E0
0070E0
0070E0
0070E0
0070E0
0070E0
0070E0
0070E0
ENDCHAR
STARTCHAR 00B7
ENCODING 183
SWIDTH 288 0
DWIDTH 12 0
BBX 4 4 4 8
BITMAP
60
F0
F0
60
ENDCHAR
STARTCHAR 00B8
ENCODING 184
SWIDTH 216 0
DWIDTH 9 0
BBX 9 8 0 -7
BITMAP
0800
1800
1E00
3F80
0380
0380
FF00
7E00
ENDCHAR
STARTCHAR 00B9
ENCODING 185
SWIDTH 336 0
DWIDTH 14 0
BBX 6 18 3 12
BITMAP
FC
FC
1C
1C
1C
1C
1C
1C
1C
1C
1C
1C
1C
1C
1C
1C
1C
1C
ENDCHAR
STARTCHAR 00BA
ENCODING 186
SWIDTH 312 0
DWIDTH 13 0
BBX 12 13 0 17
BITMAP
1F80
3FC0
7FE0
70F0
E070
E070
E070
E070
E070
70F0
7FE0
3FC0
1F80
ENDCHAR
STARTCHAR 00BB
ENCODING 187
SWIDTH 456 0
DWIDTH 19 0
BBX 15 15 2 4
BITMAP
E1C0
70E0
38F0
3870
1C38
0E1C
071C
070E
071C
0E1C
1C38
3870
38F0
70E0
E1C0
ENDCHAR
STARTCHAR 00BC
ENCODING 188
SWIDTH 840 0
DWIDTH 35 0
BBX 29 30 4 0
BITMAP
FC000E00
FC001E00
1C001C00
1C003C00
1C003800
1C007800
1C007000
1C00F000
1C00E000
1C01C000
1C01C000
1C0381E0
1C0383E0
1C0703E0
1C0F07E0
1C0E07E0
1C1E0EE0
1C1C1CE0
003C1CE0
003838E0
007838E0
007070E0
00F0F0E0
00E0FFF8
01E0FFF8
01C0FFF8
03C000E0
038000E0
078000E0
070000E0
ENDCHAR
STARTCHAR 00BD
ENCODING 189
SWIDTH 840 0
DWIDTH 35 0
BBX 29 30 4 0
BITMAP
FC003C00
FC003800
1C007800
1C007000
1C00F000
1C00E000
1C01E000
1C01C000
1C03C000
1C038000
1C078000
1C070000
1C0F0FE0
1C0E1FF0
1C1E3878
1C1C7838
1C3C7038
1C387038
00780038
00700078
00E000F0
00E001E0
01C003C0
01C00780
03800F00
07801E00
07003C00
0F007FF8
0E007FF8
1E007FF8
ENDCHAR
STARTCHAR 00BE
ENCODING 190
SWIDTH 840 0
DWIDTH 35 0
BBX 32 30 1 0
BITMAP
0FC000E0
3FF001E0
3CF801C0
783803C0
70380380
00380780
00780700
03F00F00
03F00E00
01F81E00
003C1C00
001C3C3C
E01C387C
E01C787C
F03C70FC
7CF8F0FC
3FF0E1DC
0FC1C1DC
0003C39C
0003871C
0007871C
00070E1C
000F0E1C
000E1FFF
001E1FFF
001C1FFF
003C001C
0038001C
0078001C
0070001C
ENDCHAR
STARTCHAR 00BF
ENCODING 191
SWIDTH 456 0
DWIDTH 19 0
BBX 16 31 1 -8
BITMAP
01C0
01C0
01C0
01C0
0000
0000
0000
01C0
01C0
01C0
01C0
01C0
01C0
03C0
0780
0F80
1E00
3C00
7800
7000
E000
E007
E007
E007
E007
F00F
700E
7C1E
3FFC
1FF8
07C0
ENDCHAR
STARTCHAR 00C0
ENCODING 192
SWIDTH 504 0
DWIDTH 21 0
BBX 21 38 0 0
BITMAP
038000
01C000
00C000
006000
007000
003800
000000
000000
00F800
00F800
00F800
01D800
01DC00
01DC00
039C00
038E00
038E00
030E00
070E00
070700
070700
060700
0E0780
0E0380
0E0380
1C0380
1FFFC0
1FFFC0
1FFFC0
3801E0
3800E0
3800E0
3000E0
700070
700070
700070
E00078
E00038
ENDCHAR
STARTCHAR 00C1
ENCODING 193
SWIDTH 504 0
DWIDTH 21 0
BBX 21 38 0 0
BITMAP
000F00
000E00
001C00
003800
007000
00E000
000000
000000
00F800
00F800
00F800
01DC00
01DC00
01DC00
018E00
038E00
038E00
038E00
070700
070700
070700
060700
0E0380
0E0380
0E0380
1C01C0
1FFFC0
1FFFC0
1FFFC0
3800E0
3800E0
3800E0
300070
700070
700070
700070
E00038
E00038
ENDCHAR
STARTCHAR 00C2
ENCODING 194
SWIDTH 504 0
DWIDTH 21 0
BBX 21 38 0 0
BITMAP
007000
00F800
01D800
038C00
070E00
0E0700
000000
000000
00F000
00F800
01F800
01F800
01DC00
019C00
039C00
039C00
038E00
030E00
070E00
070F00
070700
0E0700
0E0700
0E0780
0E0380
1C0380
1FFFC0
1FFFC0
1FFFC0
3801E0
3801E0
3800E0
7000E0
7000F0
7000F0
600070
E00078
E00078
ENDCHAR
STARTCHAR 00C3
ENCODING 195
SWIDTH 504 0
DWIDTH 21 0
BBX 21 36 0 0
BITMAP
038180
07F180
0C7F00
0C1E00
000000
000000
00F800
00F800
00F800
01DC00
01DC00
01DC00
039C00
038E00
038E00
038E00
070F00
070700
070700
060700
0E0380
0E0380
0E0380
1C03C0
1FFFC0
1FFFC0
1FFFC0
3800E0
3800E0
3800E0
3000E0
700070
700070
700070
E00078
E00038
ENDCHAR
STARTCHAR 00C4
ENCODING 196
SWIDTH 504 0
DWIDTH 21 0
BBX 21 36 0 0
BITMAP
038E00
038E00
038E00
038E00
000000
000000
007000
00F800
00F800
00D800
01D800
01DC00
019C00
038C00
038E00
038E00
030E00
070700
070700
060700
0E0700
0E0380
0E0380
0C0380
1FFFC0
1FFFC0
1FFFC0
3801E0
3800E0
3800E0
3800E0
700070
700070
700070
E00078
E00038
ENDCHAR
STARTCHAR 00C5
ENCODING 197
SWIDTH 504 0
DWIDTH 21 0
BBX 21 41 0 0
BITMAP
007800
01FC00
018E00
030600
030600
030600
018E00
01FC00
007800
000000
000000
00F800
00F800
00F800
01DC00
01DC00
01DC00
019C00
038E00
038E00
038E00
030700
070700
070700
060700
0E0380
0E0380
0E0380
0C0380
1FFFC0
1FFFC0
1FFFC0
3800E0
3800E0
3800E0
3000E0
700070
700070
700070
E00078
E00038
ENDCHAR
STARTCHAR 00C6
ENCODING 198
SWIDTH 840 0
DWIDTH 35 0
BBX 32 30 0 0
BITMAP
0001FFFF
0001FFFF
0003FFFF
0003F000
00077000
00077000
000E7000
000E7000
001C7000
001C7000
00387000
00787000
00707000
00F07FFF
00E07FFF
01C07FFF
01C07000
03807000
03FFF000
07FFF000
07FFF000
0E007000
0E007000
1C007000
3C007000
38007000
78007000
70007FFF
F0007FFF
E0007FFF
ENDCHAR
STARTCHAR 00C7
ENCODING 199
SWIDTH 552 0
DWIDTH 23 0
BBX 21 38 1 -8
BITMAP
01FC00
07FF00
0FFFC0
1E03E0
1C01E0
3800F0
780070
700078
700038
700038
E00038
E00000
E00000
E00000
E00000
E00000
E00000
E00000
E00000
E00038
700038
700038
700038
780070
380070
3C00E0
1F03E0
0FFFC0
07FF00
01FC00
002000
006000
00F800
00FE00
000E00
000E00
03FC00
01F800
ENDCHAR
STARTCHAR 00C8
ENCODING 200
SWIDTH 504 0
DWIDTH 21 0
BBX 15 38 3 0
BITMAP
1C00
1C00
0E00
0700
0380
01C0
0000
0000
FFFE
FFFE
FFFE
E000
E000
E000
E000
E000
E000
E000
E000
E000
E000
FFFE
FFFE
FFFE
E000
E000
E000
E000
E000
E000
E000
E000
E000
E000
E000
FFFE
FFFE
FFFE
ENDCHAR
STARTCHAR 00C9
ENCODING 201
SWIDTH 504 0
DWIDTH 21 0
BBX 16 38 3 0
BITMAP
0078
00E0
00C0
0180
0300
0600
0000
0000
FFFF
FFFF
FFFF
E000
E000
E000
E000
E000
E000
E000
E000
E000
E000
FFFF
FFFF
FFFF
E000
E000
E000
E000
E000
E000
E000
E000
E000
E000
E000
FFFF
FFFF
FFFF
ENDCHAR
STARTCHAR 00CA
ENCODING 202
SWIDTH 504 0
DWIDTH 21 0
BBX 15 38 3 0
BITMAP
0780
07C0
0CC0
1CE0
3870
7038
0000
0000
FFFE
FFFE
FFFE
E000
E000
E000
E000
E000
E000
E000
E000
E000
E000
FFFE
FFFE
FFFE
E000
E000
E000
E000
E000
E000
E000
E000
E000
E000
E000
FFFE
FFFE
FFFE
ENDCHAR
STARTCHAR 00CB
ENCODING 203
SWIDTH 504 0
DWIDTH 21 0
BBX 15 36 3 0
BITMAP
1C70
1C70
1C70
1C70
0000
0000
FFFE
FFFE
FFFE
E000
E000
E000
E000
E000
E000
E000
E000
E000
E000
FFFE
FFFE
FFFE
E000
E000
E000
E000
E000
E000
E000
E000
E000
E000
E000
FFFE
FFFE
FFFE
ENDCHAR
STARTCHAR 00CC
ENCODING 204
SWIDTH 216 0
DWIDTH 9 0
BBX 7 38 0 0
BITMAP
E0
70
30
18
0C
0E
00
00
1C
1C
1C
1C
1C
1C
1C
1C
1C
1C
1C
1C
1C
1C
1C
1C
1C
1C
1C
1C
1C
1C
1C
1C
1C
1C
1C
1C
1C
1C
ENDCHAR
STARTCHAR 00CD
ENCODING 205
SWIDTH 216 0
DWIDTH 9 0
BBX 8 38 2 0
BITMAP
0F
1C
1C
38
70
E0
00
00
70
70
70
70
70
70
70
70
70
70
70
70
70
70
70
70
70
70
70
70
70
70
70
70
70
70
70
70
70
70
ENDCHAR
STARTCHAR 00CE
ENCODING 206
SWIDTH 216 0
DWIDTH 9 0
BBX 12 38 -1 0
BITMAP
0E00
1F00
3B80
31C0
60E0
E070
0000
0000
0E00
0E00
0E00
0E00
0E00
0E00
0E00
0E00
0E00
0E00
0E00
0E00
0E00
0E00
0E00
0E00
0E00
0E00
0E00
0E00
0E00
0E00
0E00
0E00
0E00
0E00
0E00
0E00
0E00
0E00
ENDCHAR
STARTCHAR 00CF
ENCODING 207
SWIDTH 216 0
DWIDTH 9 0
BBX 9 36 0 0
BITMAP
E380
E380
E380
E380
0000
0000
1C00
1C00
1C00
1C00
1C00
1C00
1C00
1C00
1C00
1C00
1C00
1C00
1C00
1C00
1C00
1C00
1C00
1C00
1C00
1C00
1C00
1C00
1C00
1C00
1C00
1C00
1C00
1C00
1C00
1C00
ENDCHAR
STARTCHAR 00D0
ENCODING 208
SWIDTH 600 0
DWIDTH 25 0
BBX 25 30 -1 0
BITMAP
0FFF8000
0FFFE000
0FFFF800
0E007C00
0E003C00
0E001E00
0E000E00
0E000700
0E000700
0E000700
0E000380
0E000380
0E000380
FFFE0380
FFFE0380
FFFE0380
0E000380
0E000380
0E000380
0E000380
0E000700
0E000700
0E000700
0E000E00
0E001E00
0E003C00
0E007800
0FFFF000
0FFFE000
0FFF8000
ENDCHAR
STARTCHAR 00D1
ENCODING 209
SWIDTH 600 0
DWIDTH 25 0
BBX 19 36 3 0
BITMAP
030300
0FE300
18FE00
183C00
000000
000000
F000E0
F000E0
F800E0
F800E0
FC00E0
FC00E0
FE00E0
EE00E0
EF00E0
E780E0
E780E0
E3C0E0
E1C0E0
E1E0E0
E0E0E0
E0F0E0
E070E0
E078E0
E03CE0
E03CE0
E01EE0
E01EE0
E00FE0
E007E0
E007E0
E003E0
E003E0
E001E0
E001E0
E000E0
ENDCHAR
STARTCHAR 00D2
ENCODING 210
SWIDTH 600 0
DWIDTH 25 0
BBX 23 38 1 0
BITMAP
01C000
00E000
007000
003800
001C00
000E00
000000
000000
00FE00
03FFC0
07FFE0
0F01F0
1C0078
380038
38003C
70001C
70001C
70001E
E0000E
E0000E
E0000E
E0000E
E0000E
E0000E
E0000E
E0000E
E0000E
E0000E
70001C
70001C
70001C
38003C
3C0038
1E0078
1F01F0
07FFE0
03FFC0
00FE00
ENDCHAR
STARTCHAR 00D3
ENCODING 211
SWIDTH 600 0
DWIDTH 25 0
BBX 23 38 1 0
BITMAP
000780
000E00
000C00
001800
003000
006000
000000
000000
00FE00
03FF80
0FFFE0
1F01F0
1C0070
380038
38003C
70001C
70001C
70001C
E0000E
E0000E
E0000E
E0000E
E0000E
E0000E
E0000E
E0000E
E0000E
E0000E
70001C
70001C
70001C
380038
380038
1C0070
1F01F0
0FFFE0
03FF80
00FE00
ENDCHAR
STARTCHAR 00D4
ENCODING 212
SWIDTH 600 0
DWIDTH 25 0
BBX 23 38 1 0
BITMAP
003C00
007E00
006600
00E700
01C380
0381C0
000000
000000
00FE00
03FFC0
07FFE0
0F01F0
1C0078
380038
38003C
70001C
70001C
70001E
E0000E
E0000E
E0000E
E0000E
E0000E
E0000E
E0000E
E0000E
E0000E
E0000E
70001C
70001C
70001C
38003C
3C0038
1E0078
1F01F0
0FFFE0
03FFC0
00FE00
ENDCHAR
STARTCHAR 00D5
ENCODING 213
SWIDTH 600 0
DWIDTH 25 0
BBX 23 36 1 0
BITMAP
01C0C0
03F8C0
063F80
040F00
000000
000000
00FE00
03FF80
0FFFE0
1F01F0
1C0070
380038
380038
70001C
70001C
70001C
E0000E
E0000E
E0000E
E0000E
E0000E
E0000E
E0000E
E0000E
E0000E
E0000E
70001C
70001C
70001C
780038
380038
1C0070
1F01F0
0FFFE0
03FF80
00FE00
ENDCHAR
STARTCHAR 00D6
ENCODING 214
SWIDTH 600 0
DWIDTH 25 0
BBX 23 36 1 0
BITMAP
01C700
01C700
01C700
01C700
000000
000000
00FE00
03FF80
0FFFE0
1F01F0
1C0070
380038
38003C
70001C
70001C
70001C
E0000E
E0000E
E0000E
E0000E
E0000E
E0000E
E0000E
E0000E
E0000E
E0000E
70001C
70001C
70001C
380038
380038
1C0070
1F01F0
0FFFE0
03FF80
00FE00
ENDCHAR
STARTCHAR 00D7
ENCODING 215
SWIDTH 600 0
DWIDTH 25 0
BBX 21 21 2 1
BITMAP
600030
F00078
7800F0
3C01E0
1E03C0
1F0780
0F8F00
07DF00
03FE00
01FC00
00F800
01FC00
03FE00
07DF00
0F8F80
1F07C0
3E03E0
7C01F0
F800F8
700070
200020
ENDCHAR
STARTCHAR 00D8
ENCODING 216
SWIDTH 600 0
DWIDTH 25 0
BBX 24 32 0 -1
BITMAP
000007
007F0E
01FFEE
07FFFC
0F80FC
0E003C
1C007C
1C00FE
3800EE
3801CE
3803CF
700387
700707
700E07
700E07
701C07
703807
707807
707007
70E007
71E007
79C00E
3B800E
3F000E
3F001C
1E001C
1E0038
1F80F8
3FFFF0
33FFC0
707F00
E00000
ENDCHAR
STARTCHAR 00D9
ENCODING 217
SWIDTH 552 0
DWIDTH 23 0
BBX 18 38 2 0
BITMAP
0F0000
070000
038000
01C000
00E000
007000
000000
000000
E001C0
E001C0
E001C0
E001C0
E001C0
E001C0
E001C0
E001C0
E001C0
E001C0
E001C0
E001C0
E001C0
E001C0
E001C0
E001C0
E001C0
E001C0
E001C0
E001C0
E001C0
E001C0
E001C0
E001C0
F003C0
700380
7C0F80
3FFF00
1FFE00
07F800
ENDCHAR
STARTCHAR 00DA
ENCODING 218
SWIDTH 552 0
DWIDTH 23 0
BBX 18 38 2 0
BITMAP
001E00
003800
007000
006000
00C000
018000
000000
000000
E001C0
E001C0
E001C0
E001C0
E001C0
E001C0
E001C0
E001C0
E001C0
E001C0
E001C0
E001C0
E001C0
E001C0
E001C0
E001C0
E001C0
E001C0
E001C0
E001C0
E001C0
E001C0
E001C0
E001C0
F003C0
780380
7C0780
3FFF00
1FFE00
07F800
ENDCHAR
STARTCHAR 00DB
ENCODING 219
SWIDTH 552 0
DWIDTH 23 0
BBX 18 38 2 0
BITMAP
01E000
03F000
033000
063800
0E1C00
1C0E00
000000
000000
E001C0
E001C0
E001C0
E001C0
E001C0
E001C0
E001C0
E001C0
E001C0
E001C0
E001C0
E001C0
E001C0
E001C0
E001C0
E001C0
E001C0
E001C0
E001C0
E001C0
E001C0
E001C0
E001C0
E001C0
F003C0
700380
7C0F80
3FFF00
1FFE00
07F800
ENDCHAR
STARTCHAR 00DC
ENCODING 220
SWIDTH 552 0
DWIDTH 23 0
BBX 18 36 2 0
BITMAP
071C00
071C00
071C00
071C00
000000
000000
E001C0
E001C0
E001C0
E001C0
E001C0
E001C0
E001C0
E001C0
E001C0
E001C0
E001C0
E001C0
E001C0
E001C0
E001C0
E001C0
E001C0
E001C0
E001C0
E001C0
E001C0
E001C0
E001C0
E001C0
F003C0
780380
7C0780
3FFF00
1FFE00
07F800
ENDCHAR
STARTCHAR 00DD
ENCODING 221
SWIDTH 504 0
DWIDTH 21 0
BBX 20 38 1 0
BITMAP
001E00
003800
007000
006000
00C000
018000
000000
000000
E000F0
F000F0
7001E0
7801C0
3803C0
380380
3C0380
1C0700
1E0700
0E0E00
0F0E00
071C00
079C00
03B800
03B800
01F000
01F000
00E000
00E000
00E000
00E000
00E000
00E000
00E000
00E000
00E000
00E000
00E000
00E000
00E000
ENDCHAR
STARTCHAR 00DE
ENCODING 222
SWIDTH 552 0
DWIDTH 23 0
BBX 18 30 3 0
BITMAP
E00000
E00000
E00000
E00000
E00000
FFF000
FFFC00
FFFF00
E00F00
E00780
E00380
E001C0
E001C0
E001C0
E001C0
E001C0
E001C0
E001C0
E00380
E00780
E00F00
FFFF00
FFFC00
FFF000
E00000
E00000
E00000
E00000
E00000
E00000
ENDCHAR
STARTCHAR 00DF
ENCODING 223
SWIDTH 552 0
DWIDTH 23 0
BBX 18 30 3 0
BITMAP
07E000
1FF800
3FFC00
781E00
700F00
F00700
E00700
E00700
E00700
E00700
E00F00
E00E00
E03E00
E3F800
E3FC00
E3FE00
E01F00
E00780
E00380
E001C0
E001C0
E001C0
F801C0
F801C0
F803C0
FC0380
EE0F80
EFFF00
E7FE00
E1F800
ENDCHAR
STARTCHAR 00E0
ENCODING 224
SWIDTH 504 0
DWIDTH 21 0
BBX 18 31 1 0
BITMAP
0E0000
070000
038000
01C000
00E000
007000
000000
000000
03F1C0
0FF9C0
1FFDC0
3C0FC0
7807C0
7003C0
7003C0
E001C0
E001C0
E001C0
E001C0
E001C0
E001C0
E001C0
E001C0
F001C0
7003C0
7003C0
7807C0
3C0FC0
1FFDC0
0FFDC0
03F1C0
ENDCHAR
STARTCHAR 00E1
ENCODING 225
SWIDTH 504 0
DWIDTH 21 0
BBX 18 31 1 0
BITMAP
003C00
003800
007000
00E000
01C000
038000
000000
000000
03E1C0
0FF9C0
1FFDC0
3C0FC0
7807C0
7003C0
7003C0
E001C0
E001C0
E001C0
E001C0
E001C0
E001C0
E001C0
E001C0
E001C0
7003C0
7003C0
7807C0
3C0FC0
1FFDC0
0FF9C0
07F1C0
ENDCHAR
STARTCHAR 00E2
ENCODING 226
SWIDTH 504 0
DWIDTH 21 0
BBX 18 31 1 0
BITMAP
01E000
03F000
033000
061800
0E0C00
1C0E00
000000
000000
03F1C0
0FF9C0
1FFDC0
3C0FC0
7807C0
7003C0
7003C0
E001C0
E001C0
E001C0
E001C0
E001C0
E001C0
E001C0
E001C0
F001C0
7003C0
7003C0
7807C0
3C0FC0
1FFDC0
0FFDC0
03F1C0
ENDCHAR
STARTCHAR 00E3
ENCODING 227
SWIDTH 504 0
DWIDTH 21 0
BBX 17 30 1 0
BITMAP
060200
1FC600
19FC00
307C00
000000
000000
000000
03E380
0FFB80
1FFB80
3C1F80
780F80
700780
700780
E00380
E00380
E00380
E00380
E00380
E00380
E00380
E00380
E00380
700780
700780
780F80
3C1F80
1FFB80
0FFB80
07E380
ENDCHAR
STARTCHAR 00E4
ENCODING 228
SWIDTH 504 0
DWIDTH 21 0
BBX 18 30 1 0
BITMAP
0E3800
0E3800
0E3800
0E3800
000000
000000
000000
03E1C0
0FF9C0
1FFDC0
3C0FC0
7807C0
7003C0
7003C0
E001C0
E001C0
E001C0
E001C0
E001C0
E001C0
E001C0
E001C0
E001C0
7003C0
7003C0
7807C0
3C0FC0
1FFDC0
0FF9C0
07F1C0
ENDCHAR
STARTCHAR 00E5
ENCODING 229
SWIDTH 504 0
DWIDTH 21 0
BBX 18 35 1 0
BITMAP
00E000
03F000
031800
060C00
060C00
060C00
060C00
031800
03F000
00E000
000000
000000
03F1C0
0FFDC0
1FFDC0
3C0FC0
3807C0
7003C0
7003C0
E001C0
E001C0
E001C0
E001C0
E001C0
E001C0
E001C0
E001C0
F001C0
7003C0
7003C0
7807C0
3C0FC0
1FFDC0
0FFDC0
03F1C0
ENDCHAR
STARTCHAR 00E6
ENCODING 230
SWIDTH 768 0
DWIDTH 32 0
BBX 30 23 1 0
BITMAP
03E38F80
0FFB9FE0
1FFBBFF0
3C1FF070
780FE038
7007C038
7007C01C
E003801C
E003801C
E003801C
E003FFFC
E003FFFC
E003FFFC
E0038000
E0038000
E003801C
7007C01C
7007C01C
780FE038
3C1FF078
1FFFFFF0
0FFBBFE0
07E38F80
ENDCHAR
STARTCHAR 00E7
ENCODING 231
SWIDTH 456 0
DWIDTH 19 0
BBX 16 31 1 -8
BITMAP
03F0
0FF8
1FFC
3C1E
780E
700F
7007
E007
E000
E000
E000
E000
E000
E000
E000
F007
7007
7007
780E
3C1E
3FFC
1FF8
07E0
0080
0180
03E0
07F8
0038
0038
0FF0
07E0
ENDCHAR
STARTCHAR 00E8
ENCODING 232
SWIDTH 456 0
DWIDTH 19 0
BBX 16 31 1 0
BITMAP
1E00
0E00
0700
0380
01C0
00E0
0000
0000
03E0
0FF8
1FFC
3C1C
380E
700E
7007
E007
E007
E007
FFFF
FFFF
FFFF
E000
E000
E007
7007
7007
780E
3C1E
1FFC
0FF8
03E0
ENDCHAR
STARTCHAR 00E9
ENCODING 233
SWIDTH 456 0
DWIDTH 19 0
BBX 17 31 1 0
BITMAP
003C00
007000
006000
00C000
018000
030000
000000
000000
03F000
0FFC00
1FFE00
3C1E00
380F00
700700
700380
E00380
E00380
E00380
FFFF80
FFFF80
FFFF80
E00000
E00000
E00380
700380
700780
780700
3C0F00
1FFE00
0FFC00
03F000
ENDCHAR
STARTCHAR 00EA
ENCODING 234
SWIDTH 456 0
DWIDTH 19 0
BBX 16 31 1 0
BITMAP
03C0
07E0
0660
0C70
1C38
381C
0000
0000
03E0
0FF8
1FFC
3C1C
380E
700E
7007
E007
E007
E007
FFFF
FFFF
FFFF
E000
E000
E007
7007
700F
780E
3C1E
1FFC
0FF8
03E0
ENDCHAR
STARTCHAR 00EB
ENCODING 235
SWIDTH 456 0
DWIDTH 19 0
BBX 16 30 1 0
BITMAP
0E38
0E38
0E38
0E38
0000
0000
0000
03E0
0FF8
1FFC
3C1E
380E
700E
7007
E007
E007
E007
FFFF
FFFF
FFFF
E000
E000
E007
7007
7007
780E
3C1E
1FFC
0FF8
03E0
ENDCHAR
STARTCHAR 00EC
ENCODING 236
SWIDTH 216 0
DWIDTH 9 0
BBX 7 31 0 0
BITMAP
E0
70
30
18
0C
0E
00
00
1C
1C
1C
1C
1C
1C
1C
1C
1C
1C
1C
1C
1C
1C
1C
1C
1C
1C
1C
1C
1C
1C
1C
ENDCHAR
STARTCHAR 00ED
ENCODING 237
SWIDTH 216 0
DWIDTH 9 0
BBX 8 31 2 0
BITMAP
0F
1C
18
30
60
E0
00
00
70
70
70
70
70
70
70
70
70
70
70
70
70
70
70
70
70
70
70
70
70
70
70
ENDCHAR
STARTCHAR 00EE
ENCODING 238
SWIDTH 216 0
DWIDTH 9 0
BBX 12 31 -1 0
BITMAP
0E00
1F00
3B80
31C0
60E0
E070
0000
0000
0E00
0E00
0E00
0E00
0E00
0E00
0E00
0E00
0E00
0E00
0E00
0E00
0E00
0E00
0E00
0E00
0E00
0E00
0E00
0E00
0E00
0E00
0E00
ENDCHAR
STARTCHAR 00EF
ENCODING 239
SWIDTH 216 0
DWIDTH 9 0
BBX 9 30 0 0
BITMAP
E380
E380
E380
E380
0000
0000
0000
1C00
1C00
1C00
1C00
1C00
1C00
1C00
1C00
1C00
1C00
1C00
1C00
1C00
1C00
1C00
1C00
1C00
1C00
1C00
1C00
1C00
1C00
1C00
ENDCHAR
STARTCHAR 00F0
ENCODING 240
SWIDTH 504 0
DWIDTH 21 0
BBX 18 30 1 0
BITMAP
060300
1F0700
07DE00
01F800
00F000
03F800
0F3C00
0E1E00
000E00
000700
01F700
0FFF80
1FFF80
3E1F80
7807C0
7003C0
7003C0
E001C0
E001C0
E001C0
E001C0
E001C0
E001C0
F00380
700380
780780
3C0F00
1FFE00
0FFC00
03F000
ENDCHAR
STARTCHAR 00F1
ENCODING 241
SWIDTH 504 0
DWIDTH 21 0
BBX 15 30 3 0
BITMAP
0C0C
3F8C
33F8
60F0
0000
0000
0000
E3E0
EFF8
EFFC
F83C
F01E
F00E
E00E
E00E
E00E
E00E
E00E
E00E
E00E
E00E
E00E
E00E
E00E
E00E
E00E
E00E
E00E
E00E
E00E
ENDCHAR
STARTCHAR 00F2
ENCODING 242
SWIDTH 504 0
DWIDTH 21 0
BBX 18 31 1 0
BITMAP
0F0000
070000
038000
01C000
00E000
007000
000000
000000
03F000
0FFC00
1FFE00
3C0F00
380780
700380
700380
F003C0
E001C0
E001C0
E001C0
E001C0
E001C0
E001C0
E001C0
F001C0
700380
700380
780780
3C0F00
1FFE00
0FFC00
03F000
ENDCHAR
STARTCHAR 00F3
ENCODING 243
SWIDTH 504 0
DWIDTH 21 0
BBX 18 31 1 0
BITMAP
001E00
003800
007000
006000
00C000
018000
000000
000000
03F800
0FFC00
1FFE00
3C0F00
380780
700380
700380
F003C0
E001C0
E001C0
E001C0
E001C0
E001C0
E001C0
E001C0
F001C0
700380
700380
780780
3E0F00
1FFE00
0FFC00
03F000
ENDCHAR
STARTCHAR 00F4
ENCODING 244
SWIDTH 504 0
DWIDTH 21 0
BBX 18 31 1 0
BITMAP
01E000
03F000
033000
063800
0E1C00
1C0E00
000000
000000
03F000
0FFC00
1FFE00
3C0F00
780780
700380
700380
F003C0
E001C0
E001C0
E001C0
E001C0
E001C0
E001C0
E001C0
F001C0
700380
700380
780780
3C0F00
1FFE00
0FFC00
03F000
ENDCHAR
STARTCHAR 00F5
ENCODING 245
SWIDTH 504 0
DWIDTH 21 0
BBX 17 30 1 0
BITMAP
060600
1FC600
19FC00
107800
000000
000000
000000
03F000
0FF800
1FFC00
3C1E00
780F00
700700
700700
F00380
E00380
E00380
E00380
E00380
E00380
E00380
E00380
F00380
700700
700700
780F00
3C1E00
1FFC00
0FF800
07E000
ENDCHAR
STARTCHAR 00F6
ENCODING 246
SWIDTH 504 0
DWIDTH 21 0
BBX 18 30 1 0
BITMAP
071C00
071C00
071C00
071C00
000000
000000
000000
03F800
0FFC00
1FFE00
3C0F00
380780
700380
700380
F003C0
E001C0
E001C0
E001C0
E001C0
E001C0
E001C0
E001C0
F001C0
700380
780380
380780
3E0F00
1FFE00
0FFC00
03F000
ENDCHAR
STARTCHAR 00F7
ENCODING 247
SWIDTH 600 0
DWIDTH 25 0
BBX 22 23 2 0
BITMAP
007800
00FC00
00FC00
00FC00
007800
000000
000000
000000
000000
000000
FFFFFC
FFFFFC
FFFFFC
000000
000000
000000
000000
007800
00FC00
00FC00
00FC00
00FC00
007800
ENDCHAR
STARTCHAR 00F8
ENCODING 248
SWIDTH 504 0
DWIDTH 21 0
BBX 18 29 1 -3
BITMAP
0001C0
000180
000380
03F700
0FFF00
1FFE00
3C0F00
781F80
701F80
703B80
F031C0
E071C0
E0E1C0
E0E1C0
E1C1C0
E1C1C0
E381C0
E301C0
F701C0
7E0380
7E0380
7C0780
3C0F00
3FFE00
3FFC00
73F000
600000
E00000
C00000
ENDCHAR
STARTCHAR 00F9
ENCODING 249
SWIDTH 504 0
DWIDTH 21 0
BBX 15 31 3 0
BITMAP
1C00
0E00
0700
0380
01C0
00E0
0000
0000
E00E
E00E
E00E
E00E
E00E
E00E
E00E
E00E
E00E
E00E
E00E
E00E
E00E
E00E
E00E
E00E
E00E
E00E
F01E
783E
7FFE
3FEE
0FCE
ENDCHAR
STARTCHAR 00FA
ENCODING 250
SWIDTH 504 0
DWIDTH 21 0
BBX 16 31 3 0
BITMAP
0038
0070
00E0
01C0
0380
0300
0000
0000
E007
E007
E007
E007
E007
E007
E007
E007
E007
E007
E007
E007
E007
E007
E007
E007
E007
E00F
F00F
783F
7FF7
3FF7
0FC7
ENDCHAR
STARTCHAR 00FB
ENCODING 251
SWIDTH 504 0
DWIDTH 21 0
BBX 16 31 3 0
BITMAP
03C0
07E0
0660
0C30
1C38
381C
0000
0000
E007
E007
E007
E007
E007
E007
E007
E007
E007
E007
E007
E007
E007
E007
E007
E007
E007
E00F
F00F
783F
7FF7
3FF7
0FC7
ENDCHAR
STARTCHAR 00FC
ENCODING 252
SWIDTH 504 0
DWIDTH 21 0
BBX 15 30 3 0
BITMAP
1C70
1C70
1C70
1C70
0000
0000
0000
E00E
E00E
E00E
E00E
E00E
E00E
E00E
E00E
E00E
E00E
E00E
E00E
E00E
E00E
E00E
E00E
E00E
E01E
F01E
783E
7FFE
3FEE
0F8E
ENDCHAR
STARTCHAR 00FD
ENCODING 253
SWIDTH 456 0
DWIDTH 19 0
BBX 18 39 0 -8
BITMAP
001C00
003800
007000
00E000
01C000
018000
000000
000000
E003C0
F003C0
700380
700780
700780
380700
380700
380F00
1C0E00
1C0E00
1C1E00
0E1C00
0E1C00
0E1C00
063800
073800
073800
037000
03F000
03F000
03E000
01E000
01E000
01C000
01C000
03C000
038000
038000
078000
070000
070000
ENDCHAR
STARTCHAR 00FE
ENCODING 254
SWIDTH 504 0
DWIDTH 21 0
BBX 16 38 3 -8
BITMAP
E000
E000
E000
E000
E000
E000
E000
E3E0
EFF8
FFFC
F83C
F01E
F00E
F00E
E007
E007
E007
E007
E007
E007
E007
E007
E007
F00E
F00E
F00E
F81C
FFFC
EFF0
E3E0
E000
E000
E000
E000
E000
E000
E000
E000
ENDCHAR
STARTCHAR 00FF
ENCODING 255
SWIDTH 456 0
DWIDTH 19 0
BBX 18 38 0 -8
BITMAP
0E1800
0E1800
0E1800
0E1800
000000
000000
000000
E003C0
E003C0
700380
700780
700780
380700
380F00
380F00
1C0E00
1C0E00
1C1E00
0C1C00
0E1C00
0E1C00
063800
073800
073800
037000
03F000
03F000
03E000
01E000
01E000
01C000
01C000
03C000
038000
038000
078000
070000
070000
ENDCHAR
STARTCHAR 0131
ENCODING 305
SWIDTH 216 0
DWIDTH 9 0
BBX 3 23 3 0
BITMAP
E0
E0
E0
E0
E0
E0
E0
E0
E0
E0
E0
E0
E0
E0
E0
E0
E0
E0
E0
E0
E0
E0
E0
ENDCHAR
STARTCHAR 0141
ENCODING 321
SWIDTH 456 0
DWIDTH 19 0
BBX 18 30 0 0
BITMAP
1C0000
1C0000
1C0000
1C0000
1C0000
1C0000
1C0000
1C0000
1C0000
1C0000
1C0C00
1C3C00
1DFC00
1FF000
3FC000
FE0000
FC0000
DC0000
1C0000
1C0000
1C0000
1C0000
1C0000
1C0000
1C0000
1C0000
1C0000
1FFFC0
1FFFC0
1FFFC0
ENDCHAR
STARTCHAR 0142
ENCODING 322
SWIDTH 216 0
DWIDTH 9 0
BBX 9 30 0 0
BITMAP
1C00
1C00
1C00
1C00
1C00
1C00
1C00
1C00
1C00
1C00
1C80
1F80
1F80
3F00
FC00
FC00
DC00
1C00
1C00
1C00
1C00
1C00
1C00
1C00
1C00
1C00
1C00
1C00
1C00
1C00
ENDCHAR
STARTCHAR 0152
ENCODING 338
SWIDTH 936 0
DWIDTH 39 0
BBX 36 30 1 0
BITMAP
00FE0FFFF0
03FFCFFFF0
0FFFEFFFF0
0F01FE0000
1C00FE0000
38007E0000
38003E0000
70003E0000
70001E0000
70001E0000
E0000E0000
E0000E0000
E0000E0000
E0000FFFF0
E0000FFFF0
E0000FFFF0
E0000E0000
E0000E0000
E0000E0000
E0000E0000
70001E0000
70001E0000
70001E0000
38003E0000
38003E0000
1C007E0000
1F01FE0000
0FFFEFFFF0
03FFCFFFF0
00FF0FFFF0
ENDCHAR
STARTCHAR 0153
ENCODING 339
SWIDTH 768 0
DWIDTH 32 0
BBX 30 23 1 0
BITMAP
03F00F80
0FF83FE0
1FFC7FF0
3C1EF070
780FE038
7007C038
7007C01C
F003801C
E003801C
E003801C
E003FFFC
E003FFFC
E003FFFC
E0038000
E0038000
F003801C
7007C01C
7007C03C
780FE038
3C1EF078
1FFC7FF0
0FF83FE0
03F01F80
ENDCHAR
STARTCHAR 0160
ENCODING 352
SWIDTH 504 0
DWIDTH 21 0
BBX 19 38 1 0
BITMAP
1C0E00
0C1C00
063800
073000
03E000
01E000
000000
000000
03F800
1FFE00
3FFF00
780F80
700380
E003C0
E001C0
E001C0
E001C0
E00000
F00000
780000
3F0000
1FE000
07FC00
01FF00
001F80
0007C0
0001C0
0001E0
0000E0
E000E0
E000E0
E000E0
F001E0
7001C0
7C07C0
3FFF80
1FFE00
07F800
ENDCHAR
STARTCHAR 0161
ENCODING 353
SWIDTH 456 0
DWIDTH 19 0
BBX 16 31 1 0
BITMAP
381C
1C38
0E70
0660
03C0
03C0
0000
0000
07E0
1FF8
3FFC
383C
701E
700E
700E
7000
7800
3F00
1FE0
0FFC
01FE
001E
000F
0007
E007
E007
F00F
781E
3FFC
1FF8
0FE0
ENDCHAR
STARTCHAR 0178
ENCODING 376
SWIDTH 504 0
DWIDTH 21 0
BBX 20 36 1 0
BITMAP
071C00
071C00
071C00
071C00
000000
000000
F000F0
F000E0
7001E0
7801C0
3803C0
3C0380
1C0780
1C0700
0E0F00
0E0E00
0F1E00
071C00
079C00
03B800
03B800
01F000
01F000
00E000
00E000
00E000
00E000
00E000
00E000
00E000
00E000
00E000
00E000
00E000
00E000
00E000
ENDCHAR
STARTCHAR 017D
ENCODING 381
SWIDTH 456 0
DWIDTH 19 0
BBX 17 38 1 0
BITMAP
380C00
1C1800
0E3000
077000
03E000
01C000
000000
000000
FFFF80
FFFF80
FFFF80
000F00
000F00
001E00
001E00
003C00
003C00
007800
007800
00F000
00F000
01E000
01E000
03C000
03C000
078000
070000
0F0000
0E0000
1E0000
1C0000
3C0000
380000
780000
700000
FFFF80
FFFF80
FFFF80
ENDCHAR
STARTCHAR 017E
ENCODING 382
SWIDTH 456 0
DWIDTH 19 0
BBX 16 31 1 0
BITMAP
381C
1C18
0E30
0770
03E0
01C0
0000
0000
7FFF
7FFF
7FFF
000F
001E
003C
003C
0078
00F0
00E0
01E0
03C0
0380
0780
0F00
0E00
1E00
3C00
7800
7800
FFFF
FFFF
FFFF
ENDCHAR
STARTCHAR 0192
ENCODING 402
SWIDTH 552 0
DWIDTH 23 0
BBX 22 38 0 -8
BITMAP
0000F8
0003FC
0007F8
000E00
001C00
001C00
001C00
001800
003800
003800
003800
003800
0FFFE0
0FFFE0
0FFFE0
003800
003800
003800
003800
003800
003800
003800
003800
003800
007800
007000
007000
007000
007000
007000
007000
00E000
00E000
00E000
01C000
7F8000
FF0000
FE0000
ENDCHAR
STARTCHAR 02C6
ENCODING 710
SWIDTH 216 0
DWIDTH 9 0
BBX 12 6 -1 25
BITMAP
0F00
1F80
1980
39C0
70E0
E070
ENDCHAR
STARTCHAR 02C7
ENCODING 711
SWIDTH 216 0
DWIDTH 9 0
BBX 12 6 -1 25
BITMAP
E070
70E0
39C0
1980
1F80
0F00
ENDCHAR
STARTCHAR 02C9
ENCODING 713
SWIDTH 216 0
DWIDTH 9 0
BBX 12 2 -1 27
BITMAP
FFF0
FFF0
ENDCHAR
STARTCHAR 02D8
ENCODING 728
SWIDTH 216 0
DWIDTH 9 0
BBX 12 5 -1 27
BITMAP
C030
C030
60E0
3FC0
1F00
ENDCHAR
STARTCHAR 02D9
ENCODING 729
SWIDTH 216 0
DWIDTH 9 0
BBX 3 4 3 26
BITMAP
E0
E0
E0
E0
ENDCHAR
STARTCHAR 02DA
ENCODING 730
SWIDTH 216 0
DWIDTH 9 0
BBX 9 10 0 25
BITMAP
1C00
3F00
6300
C180
C180
C180
C180
6300
7F00
1C00
ENDCHAR
STARTCHAR 02DB
ENCODING 731
SWIDTH 216 0
DWIDTH 9 0
BBX 10 9 0 -7
BITMAP
0700
1800
7000
6000
E000
E040
F1C0
7F80
3C00
ENDCHAR
STARTCHAR 02DC
ENCODING 732
SWIDTH 216 0
DWIDTH 9 0
BBX 13 4 -2 25
BITMAP
1818
7F18
E7F0
C1E0
ENDCHAR
STARTCHAR 02DD
ENCODING 733
SWIDTH 216 0
DWIDTH 9 0
BBX 13 6 0 25
BITMAP
0E78
1C70
18E0
31C0
6380
E700
ENDCHAR
STARTCHAR 03BC
ENCODING 956
SWIDTH 504 0
DWIDTH 21 0
BBX 15 31 3 -8
BITMAP
E00E
E00E
E00E
E00E
E00E
E00E
E00E
E00E
E00E
E00E
E00E
E00E
E00E
E00E
E00E
E00E
E00E
E01E
F01E
F83E
FFFE
FFEE
FF8E
E000
E000
E000
E000
E000
E000
E000
E000
ENDCHAR
STARTCHAR 2013
ENCODING 8211
SWIDTH 504 0
DWIDTH 21 0
BBX 21 2 0 10
BITMAP
FFFFF8
FFFFF8
ENDCHAR
STARTCHAR 2014
ENCODING 8212
SWIDTH 1008 0
DWIDTH 42 0
BBX 42 2 0 10
BITMAP
FFFFFFFFFFC0
FFFFFFFFFFC0
ENDCHAR
STARTCHAR 2018
ENCODING 8216
SWIDTH 216 0
DWIDTH 9 0
BBX 7 9 1 20
BITMAP
E0
70
70
38
38
1C
1C
0E
0E
ENDCHAR
STARTCHAR 2019
ENCODING 8217
SWIDTH 216 0
DWIDTH 9 0
BBX 7 9 1 20
BITMAP
0E
0E
1C
1C
38
38
70
70
E0
ENDCHAR
STARTCHAR 201A
ENCODING 8218
SWIDTH 216 0
DWIDTH 9 0
BBX 7 9 1 -5
BITMAP
0E
0E
1C
1C
38
38
70
70
E0
ENDCHAR
STARTCHAR 201C
ENCODING 8220
SWIDTH 336 0
DWIDTH 14 0
BBX 12 9 1 20
BITMAP
E700
7700
7380
3B80
39C0
1DC0
1CE0
0EE0
0E70
ENDCHAR
STARTCHAR 201D
ENCODING 8221
SWIDTH 336 0
DWIDTH 14 0
BBX 12 9 1 20
BITMAP
0E70
0E60
1CE0
1CC0
39C0
3980
7380
7300
E700
ENDCHAR
STARTCHAR 201E
ENCODING 8222
SWIDTH 336 0
DWIDTH 14 0
BBX 12 9 1 -5
BITMAP
0E70
0EE0
1CE0
1DC0
39C0
3B80
7380
7700
E700
ENDCHAR
STARTCHAR 2020
ENCODING 8224
SWIDTH 456 0
DWIDTH 19 0
BBX 14 34 2 -5
BITMAP
0300
0300
0300
0300
0300
0300
0300
0300
FB7C
FFFC
C30C
0300
0300
0300
0300
0300
0300
0300
0300
0300
0300
0300
0300
0300
0300
0300
0300
0300
0300
0300
0300
0300
0300
0300
ENDCHAR
STARTCHAR 2021
ENCODING 8225
SWIDTH 456 0
DWIDTH 19 0
BBX 15 34 2 -5
BITMAP
0380
0380
0380
0380
0380
0300
0100
0100
FD7E
FFFE
8106
0100
0180
0380
0380
0380
0380
0380
0380
0380
0380
0380
0100
8106
FFFE
FD7E
0100
0100
0180
0380
0380
0380
0380
0380
ENDCHAR
STARTCHAR 2022
ENCODING 8226
SWIDTH 504 0
DWIDTH 21 0
BBX 15 15 3 8
BITMAP
07C0
1FF0
3FF8
7FFC
7FFC
FFFE
FFFE
FFFE
FFFE
FFFE
7FFC
7FFC
3FF8
1FF0
07C0
ENDCHAR
STARTCHAR 2026
ENCODING 8230
SWIDTH 1008 0
DWIDTH 42 0
BBX 30 4 6 1
BITMAP
E007001C
E007001C
E007001C
E007001C
ENDCHAR
STARTCHAR 2030
ENCODING 8240
SWIDTH 1008 0
DWIDTH 42 0
BBX 40 30 1 0
BITMAP
0F80300000
3FC0700000
70E0600000
6070600000
E030E00000
C030C00000
C031C00000
C031800000
C033800000
E033800000
6073000000
70E7000000
3FC6000000
0F8E000000
000C000000
001C000000
001C7E01F0
0018FF07FC
0039C38E1E
0031818C06
007301DC07
006300D803
00E300D803
00E300D803
00C300D803
01C301DC07
0181818C06
0381C38F0E
0300FF07FC
07007C01F0
ENDCHAR
STARTCHAR 2039
ENCODING 8249
SWIDTH 288 0
DWIDTH 12 0
BBX 8 15 2 4
BITMAP
07
0E
1C
1C
38
70
70
E0
70
70
38
1C
1C
0E
07
ENDCHAR
STARTCHAR 203A
ENCODING 8250
SWIDTH 288 0
DWIDTH 12 0
BBX 8 15 2 4
BITMAP
E0
70
38
38
1C
0E
0E
07
0E
0E
1C
38
38
70
E0
ENDCHAR
STARTCHAR 2044
ENCODING 8260
SWIDTH 168 0
DWIDTH 7 0
BBX 21 30 -7 0
BITMAP
000078
000070
0000F0
0000E0
0001C0
0003C0
000380
000780
000700
000E00
001E00
001C00
003C00
003800
007800
007000
00E000
01E000
01C000
03C000
038000
070000
0F0000
0E0000
1E0000
1C0000
3C0000
380000
700000
F00000
ENDCHAR
STARTCHAR 20AC
ENCODING 8364
SWIDTH 552 0
DWIDTH 23 0
BBX 20 30 1 0
BITMAP
003F80
00FFE0
01FFF0
03E0F0
078010
070000
0E0000
0E0000
0C0000
1C0000
7FFFC0
7FFFC0
FFFF80
1C0000
1C0000
1C0000
7FFF00
7FFF00
FFFE00
1C0000
1C0000
0E0000
0E0000
0F0000
070000
078010
03F0F0
01FFF0
00FFE0
003F80
ENDCHAR
STARTCHAR 2122
ENCODING 8482
SWIDTH 984 0
DWIDTH 41 0
BBX 34 17 2 13
BITMAP
FFF9F007C0
FFF9F007C0
0701F80FC0
0701F80FC0
0701D80DC0
0701DC1DC0
0701DC1DC0
0701CE39C0
0701CE39C0
0701C631C0
0701C771C0
0701C771C0
0701C3E1C0
0701C3E1C0
0701C1C1C0
0701C1C1C0
0701C1C1C0
ENDCHAR
STARTCHAR 2212
ENCODING 8722
SWIDTH 600 0
DWIDTH 25 0
BBX 21 3 2 9
BITMAP
FFFFF8
FFFFF8
FFFFF8
ENDCHAR
STARTCHAR 2215
ENCODING 8725
SWIDTH 168 0
DWIDTH 7 0
BBX 21 30 -7 0
BITMAP
000078
000070
0000F0
0000E0
0001C0
0003C0
000380
000780
000700
000E00
001E00
001C00
003C00
003800
007800
007000
00E000
01E000
01C000
03C000
038000
070000
0F0000
0E0000
1E0000
1C0000
3C0000
380000
700000
F00000
ENDCHAR
STARTCHAR 2219
ENCODING 8729
SWIDTH 288 0
DWIDTH 12 0
BBX 4 4 4 8
BITMAP
60
F0
F0
60
ENDCHAR
STARTCHAR FB01
ENCODING 64257
SWIDTH 456 0
DWIDTH 19 0
BBX 15 30 0 0
BITMAP
07CE
0FCE
1FCE
1C0E
1C00
1C00
1C00
FF8E
FF8E
FF8E
1C0E
1C0E
1C0E
1C0E
1C0E
1C0E
1C0E
1C0E
1C0E
1C0E
1C0E
1C0E
1C0E
1C0E
1C0E
1C0E
1C0E
1C0E
1C0E
1C0E
ENDCHAR
STARTCHAR FB02
ENCODING 64258
SWIDTH 456 0
DWIDTH 19 0
BBX 15 30 0 0
BITMAP
07CE
0FCE
1FCE
1C0E
1C0E
1C0E
1C0E
FF8E
FF8E
FF8E
1C0E
1C0E
1C0E
1C0E
1C0E
1C0E
1C0E
1C0E
1C0E
1C0E
1C0E
1C0E
1C0E
1C0E
1C0E
1C0E
1C0E
1C0E
1C0E
1C0E
ENDCHAR
ENDFONT
